<svg xmlns="http://www.w3.org/2000/svg" width="13.47" height="85.7" viewBox="0 0 13.47 85.7"><path fill="#fff" fill-rule="evenodd" d="M1846.52,12815.3v2.3h5.31v1.7a8.147,8.147,0,0,0,.2,1.9,4.3,4.3,0,0,0,.64,1.6,3.094,3.094,0,0,0,1.17,1.1,4.592,4.592,0,0,0,1.79.4,3.086,3.086,0,0,0,1.7-.4,2.789,2.789,0,0,0,1.16-.9,5.131,5.131,0,0,0,.65-1.6,8.085,8.085,0,0,0,.2-1.9v-4.2h-12.82Zm7.23,2.3h3.67v1.6a7.255,7.255,0,0,1-.06,1,2.051,2.051,0,0,1-.26.9,1.106,1.106,0,0,1-.56.6,1.349,1.349,0,0,1-.91.3,1.414,1.414,0,0,1-.94-0.3,1.12,1.12,0,0,1-.57-0.6,2.022,2.022,0,0,1-.29-0.9,5.62,5.62,0,0,1-.08-1v-1.6Zm-7.23,6v2.6l2.94,1.1v5.6l-2.94,1.1v2.6l12.82-5.5v-1.9Zm4.89,4.5,5.21,2-5.21,2v-4Zm2.43,20.4v-4.8h-1.89v2.6h-3.25a6.035,6.035,0,0,1-.46-2.5,4.945,4.945,0,0,1,.36-1.9,3.649,3.649,0,0,1,.98-1.4,4.148,4.148,0,0,1,1.5-.9,5.677,5.677,0,0,1,1.89-.3,5.463,5.463,0,0,1,1.84.3,4.107,4.107,0,0,1,1.49.9,3.781,3.781,0,0,1,.99,1.4,3.987,3.987,0,0,1,.37,1.8,4.775,4.775,0,0,1-.38,1.9,3.352,3.352,0,0,1-.93,1.3l1.7,1.6a5.568,5.568,0,0,0,1.17-2,8.648,8.648,0,0,0,.45-2.8,7.278,7.278,0,0,0-1.81-5,5.657,5.657,0,0,0-2.11-1.4,6.3,6.3,0,0,0-2.78-.5,6.148,6.148,0,0,0-2.74.5,6.074,6.074,0,0,0-3.53,3.6,7.72,7.72,0,0,0-.5,2.8,13.021,13.021,0,0,0,.26,2.7,8.757,8.757,0,0,0,.73,2.1h6.65Zm-7.32,2.8v8.8h2.03v-6.5h3.62v5.8h1.92v-5.8h3.26v6.2h1.99v-8.5h-12.82Zm0,18.1v2.2h10.83v4h1.99v-10.1h-1.99v3.9h-10.83Zm3.71,7.3a5.853,5.853,0,0,0-2.14,1.4,6.363,6.363,0,0,0-1.39,2.1,7.72,7.72,0,0,0-.5,2.8,6.84,6.84,0,0,0,.5,2.7,6.074,6.074,0,0,0,3.53,3.6,6.148,6.148,0,0,0,2.74.5,6.3,6.3,0,0,0,2.78-.5,5.657,5.657,0,0,0,2.11-1.4,5.9,5.9,0,0,0,1.33-2.2,7.216,7.216,0,0,0,.48-2.7,8.157,8.157,0,0,0-.48-2.8,6.366,6.366,0,0,0-1.33-2.1,5.657,5.657,0,0,0-2.11-1.4,6.331,6.331,0,0,0-2.78-.6A6.187,6.187,0,0,0,1850.23,12876.7Zm4.58,2.2a4.107,4.107,0,0,1,1.49.9,4.826,4.826,0,0,1,.99,1.4,3.987,3.987,0,0,1,.37,1.8,4.641,4.641,0,0,1-.37,1.8,4.826,4.826,0,0,1-.99,1.4,4.107,4.107,0,0,1-1.49.9,5.463,5.463,0,0,1-1.84.3,5.677,5.677,0,0,1-1.89-.3,4.148,4.148,0,0,1-1.5-.9,4.61,4.61,0,0,1-.98-1.4,4.815,4.815,0,0,1-.36-1.8,4.128,4.128,0,0,1,.36-1.8,4.61,4.61,0,0,1,.98-1.4,4.148,4.148,0,0,1,1.5-.9,5.677,5.677,0,0,1,1.89-.3A5.463,5.463,0,0,1,1854.81,12878.9Zm-8.29,13.2v2.2h5.31v1.8a8.764,8.764,0,0,0,.2,1.9,5.112,5.112,0,0,0,.64,1.6,2.853,2.853,0,0,0,1.17,1,3.321,3.321,0,0,0,1.79.4,4.344,4.344,0,0,0,1.7-.3,3.028,3.028,0,0,0,1.16-1,3.816,3.816,0,0,0,.65-1.5,9.007,9.007,0,0,0,.2-2v-4.1h-12.82Zm7.23,2.2h3.67v1.7a8.386,8.386,0,0,1-.06,1,3.4,3.4,0,0,1-.26.9,1.615,1.615,0,0,1-.56.6,1.319,1.319,0,0,1-.91.2,1.391,1.391,0,0,1-.94-0.2,1.641,1.641,0,0,1-.57-0.6,3.494,3.494,0,0,1-.29-0.9,6.787,6.787,0,0,1-.08-1.1v-1.6Z" transform="translate(-1846.19 -12815.3)"/></svg>
