<svg xmlns="http://www.w3.org/2000/svg" viewBox="0 0 141.22 141.22"><path d="M70.61,0A70.61,70.61,0,1,1,0,70.61,70.61,70.61,0,0,1,70.61,0Z" style="fill:#313131;fill-rule:evenodd"/><path d="M97.73,105.53v2H89.21V95.1h8.2V97h-6v3.14H97.1V102H91.41v3.5ZM86.44,87.8H84.23V82.43l-4.65-7h2.69l3.12,5.21,3.15-5.21h2.55l-4.65,7ZM63.62,34.33l21,15-21,15ZM68.51,87.8H61V75.42h2.2V85.84h5.27Zm-3.46,7a7.63,7.63,0,0,1,2.67.45,6.09,6.09,0,0,1,2.12,1.3,5.79,5.79,0,0,1,1.39,2,6.82,6.82,0,0,1,.5,2.69,6.69,6.69,0,0,1-.5,2.65A6,6,0,0,1,69.84,106a6.33,6.33,0,0,1-2.12,1.34,7.61,7.61,0,0,1-5.32,0,6.1,6.1,0,0,1-3.49-3.41,6.87,6.87,0,0,1-.49-2.65,7,7,0,0,1,.49-2.69,6,6,0,0,1,3.49-3.33A7.56,7.56,0,0,1,65.05,94.79Zm-3.93,4.69a5.12,5.12,0,0,0-.31,1.78,5.41,5.41,0,0,0,.31,1.83,4.37,4.37,0,0,0,.87,1.44,4.06,4.06,0,0,0,1.35,1,4.57,4.57,0,0,0,3.46,0,4.06,4.06,0,0,0,1.35-1,4.39,4.39,0,0,0,.88-1.44,5.4,5.4,0,0,0,.3-1.83,5.12,5.12,0,0,0-.3-1.78A4.37,4.37,0,0,0,68.16,98a3.86,3.86,0,0,0-1.35-1,4.53,4.53,0,0,0-3.49,0A4,4,0,0,0,62,98,4.21,4.21,0,0,0,61.12,99.48Zm-3-17.62a4.36,4.36,0,0,1-1.53.62,8.48,8.48,0,0,1-1.86.2H53.08V87.8H50.87V75.42h4a8.7,8.7,0,0,1,1.93.19,4.09,4.09,0,0,1,1.47.63,2.84,2.84,0,0,1,.94,1.12,4.1,4.1,0,0,1,0,3.38A3.11,3.11,0,0,1,58.16,81.86Zm-1-3.74a1.56,1.56,0,0,0-.61-.53,2.49,2.49,0,0,0-.85-.26,8.22,8.22,0,0,0-1-.06H53.08v3.55h1.54a5.73,5.73,0,0,0,1-.08,2.54,2.54,0,0,0,.87-.28,1.57,1.57,0,0,0,.62-.55,1.64,1.64,0,0,0,.22-.91A1.57,1.57,0,0,0,57.14,78.12Zm-.66,17v12.39H54.3v-10h0l-3.76,10H49l-3.71-10h0v10h-2.1V95.1h3.45l3.22,8.8h0L53,95.1ZM78,85H72.63L71.51,87.8H69l5.39-12.38h1.91L81.67,87.8H79.15ZM75.32,78l-1.94,5h3.85ZM74.09,95.1l3.41,9.54h.07L81,95.1h2.38l-5,12.39h-1.9L71.62,95.1Zm12.57,12.39h-2.2V95.1h2.2Z" style="fill:#fff;fill-rule:evenodd"/></svg>
