<svg xmlns="http://www.w3.org/2000/svg" width="13.47" height="67.12" viewBox="0 0 13.47 67.12"><path fill="#313131" fill-rule="evenodd" d="M1858.29,1244.3a4.759,4.759,0,0,0,1.03-1.74,5.979,5.979,0,0,0,.35-1.97,6.568,6.568,0,0,0-.23-1.7,4.629,4.629,0,0,0-.69-1.49,3.6,3.6,0,0,0-1.17-1.06,3.318,3.318,0,0,0-1.68-.41,3.534,3.534,0,0,0-1.51.29,3.007,3.007,0,0,0-1.02.75,3.731,3.731,0,0,0-.67,1.03,10.829,10.829,0,0,0-.44,1.15c-0.13.4-.26,0.78-0.38,1.14a4.473,4.473,0,0,1-.42.93,2.088,2.088,0,0,1-.58.63,1.434,1.434,0,0,1-.84.24,1.686,1.686,0,0,1-.88-0.21,1.908,1.908,0,0,1-.59-0.54,2.137,2.137,0,0,1-.34-0.75,3.74,3.74,0,0,1-.1-0.81,3.6,3.6,0,0,1,.38-1.54,3.282,3.282,0,0,1,1.04-1.25l-1.52-1.62a4.668,4.668,0,0,0-1.37,1.95,6.592,6.592,0,0,0-.46,2.43,6.176,6.176,0,0,0,.25,1.78,4.278,4.278,0,0,0,.76,1.47,3.663,3.663,0,0,0,1.28,1.01,4.046,4.046,0,0,0,1.8.38,3.227,3.227,0,0,0,1.57-.35,3.068,3.068,0,0,0,1.05-.9,4.924,4.924,0,0,0,.67-1.21c0.17-.43.32-0.86,0.46-1.27,0.1-.36.21-0.69,0.32-0.99a3.588,3.588,0,0,1,.38-0.76,1.679,1.679,0,0,1,.53-0.5,1.424,1.424,0,0,1,.74-0.18,1.468,1.468,0,0,1,.8.21,1.744,1.744,0,0,1,.55.53,2.572,2.572,0,0,1,.31.72,3.613,3.613,0,0,1,.09.79,3.044,3.044,0,0,1-.31,1.33,2.743,2.743,0,0,1-.79,1.01Zm-0.58,13.12a3.59,3.59,0,0,0,.87-0.91,6.734,6.734,0,0,0,.61-1.16,6.626,6.626,0,0,0,.36-1.27,7.266,7.266,0,0,0,.12-1.28,7.622,7.622,0,0,0-.48-2.74,6.566,6.566,0,0,0-1.33-2.19,6.3,6.3,0,0,0-2.11-1.45,6.926,6.926,0,0,0-2.78-.53,7.112,7.112,0,0,0-2.74.5,6.409,6.409,0,0,0-2.14,1.4,6.279,6.279,0,0,0-1.39,2.15,7.235,7.235,0,0,0-.5,2.75,6.409,6.409,0,0,0,.59,2.86,5.743,5.743,0,0,0,1.65,2.07l1.29-1.82a3.523,3.523,0,0,1-1.08-1.27,3.966,3.966,0,0,1-.41-1.82,4.382,4.382,0,0,1,.35-1.78,3.8,3.8,0,0,1,.97-1.36,4.328,4.328,0,0,1,1.49-.88,5.858,5.858,0,0,1,1.92-.3,5.227,5.227,0,0,1,1.84.31,4.4,4.4,0,0,1,1.49.9,4.334,4.334,0,0,1,1.36,3.2,4.367,4.367,0,0,1-.32,1.58,2.937,2.937,0,0,1-1.01,1.32Zm-11.19,1.68v2.27h5.43v1.65l-5.43,2.96v2.73l5.69-3.4a3.916,3.916,0,0,0,1.18,2.13,3.327,3.327,0,0,0,2.28.79,3.486,3.486,0,0,0,1.71-.4,3.234,3.234,0,0,0,1.15-1.05,4.752,4.752,0,0,0,.62-1.51,7.67,7.67,0,0,0,.19-1.74v-4.43h-12.82Zm7.3,2.27h3.6v2.05a5.51,5.51,0,0,1-.07.89,2.553,2.553,0,0,1-.27.82,1.7,1.7,0,0,1-.54.59,1.435,1.435,0,0,1-.86.24,1.741,1.741,0,0,1-.95-0.25,1.938,1.938,0,0,1-.57-0.64,2.926,2.926,0,0,1-.27-0.88,6.241,6.241,0,0,1-.07-0.97v-1.85Zm-3.59,8.84a6.261,6.261,0,0,0-3.53,3.58,7.2,7.2,0,0,0-.5,2.73,7.286,7.286,0,0,0,.5,2.76,6.364,6.364,0,0,0,1.39,2.17,6.191,6.191,0,0,0,2.14,1.43,6.934,6.934,0,0,0,2.74.52,7.1,7.1,0,0,0,2.78-.52,5.978,5.978,0,0,0,2.11-1.43,6.378,6.378,0,0,0,1.33-2.17,7.692,7.692,0,0,0,.48-2.76,7.606,7.606,0,0,0-.48-2.73,6.431,6.431,0,0,0-1.33-2.16,6.23,6.23,0,0,0-2.11-1.42,7.283,7.283,0,0,0-2.78-.51A7.114,7.114,0,0,0,1850.23,1270.21Zm4.58,2.27a4.546,4.546,0,0,1,1.49.89,4.244,4.244,0,0,1,1.36,3.17,4.289,4.289,0,0,1-1.36,3.19,4.546,4.546,0,0,1-1.49.89,5.227,5.227,0,0,1-1.84.31,5.431,5.431,0,0,1-1.89-.31,4.448,4.448,0,0,1-1.5-.9,4.073,4.073,0,0,1-.98-1.4,4.322,4.322,0,0,1-.36-1.78,4.242,4.242,0,0,1,.36-1.77,4.034,4.034,0,0,1,.98-1.39,4.448,4.448,0,0,1,1.5-.9,5.431,5.431,0,0,1,1.89-.31A5.227,5.227,0,0,1,1854.81,1272.48Zm-8.29,13.14v7.68h2.03v-5.41h10.79v-2.27h-12.82Zm0,9.21v7.68h2.03v-5.42h10.79v-2.26h-12.82Z" transform="translate(-1846.19 -1235.38)"/></svg>
