<svg xmlns="http://www.w3.org/2000/svg" width="378.344" height="98.44" viewBox="0 0 378.344 98.44"><path fill="#313131" fill-rule="evenodd" d="M211.611,9589.52a14.211,14.211,0,0,0-5.115-3.02,17.879,17.879,0,0,0-5.8-1.01,19.283,19.283,0,0,0-5.009.66,13.916,13.916,0,0,0-4.4,2.02,10.583,10.583,0,0,0-3.127,3.41,9.729,9.729,0,0,0-1.192,4.93,10.233,10.233,0,0,0,.848,4.43,9.446,9.446,0,0,0,2.2,2.99,10.95,10.95,0,0,0,3.048,1.96,33.292,33.292,0,0,0,3.392,1.28q1.749,0.585,3.339,1.11a13.008,13.008,0,0,1,2.756,1.25,6.127,6.127,0,0,1,1.855,1.69,4.224,4.224,0,0,1,.689,2.47,5,5,0,0,1-.61,2.57,5.47,5.47,0,0,1-1.59,1.72,6.271,6.271,0,0,1-2.2.98,9.855,9.855,0,0,1-6.917-.82,9.57,9.57,0,0,1-3.683-3.02l-4.77,4.45a13.777,13.777,0,0,0,5.724,4,19.717,19.717,0,0,0,7.155,1.35,18.462,18.462,0,0,0,5.247-.74,12.589,12.589,0,0,0,4.346-2.23,10.793,10.793,0,0,0,2.968-3.73,11.776,11.776,0,0,0,1.113-5.28,9.393,9.393,0,0,0-1.034-4.61,9.742,9.742,0,0,0-2.65-3.07,14.4,14.4,0,0,0-3.551-1.96c-1.29-.5-2.536-0.94-3.736-1.33-1.06-.32-2.033-0.63-2.915-0.95a10.15,10.15,0,0,1-2.253-1.11,4.888,4.888,0,0,1-1.457-1.54,4.215,4.215,0,0,1-.53-2.17,4.376,4.376,0,0,1,.609-2.36,4.853,4.853,0,0,1,1.564-1.59,6.9,6.9,0,0,1,2.12-.9,9.314,9.314,0,0,1,2.332-.3,8.918,8.918,0,0,1,3.9.93,8.129,8.129,0,0,1,2.995,2.31Zm6.232,34.45h6.678v-15.53h5.141a26.022,26.022,0,0,0,5.618-.58,13.779,13.779,0,0,0,4.637-1.89,9.425,9.425,0,0,0,3.154-3.41,10.816,10.816,0,0,0,1.166-5.25,11.267,11.267,0,0,0-1.007-4.98,8.953,8.953,0,0,0-2.862-3.4,12.218,12.218,0,0,0-4.452-1.9,26.6,26.6,0,0,0-5.83-.59H217.843v37.53Zm6.678-21.15v-10.76H229.4a22.574,22.574,0,0,1,2.994.19,7.715,7.715,0,0,1,2.6.77,4.422,4.422,0,0,1,2.518,4.29,4.946,4.946,0,0,1-.689,2.75,4.776,4.776,0,0,1-1.855,1.67,8.582,8.582,0,0,1-2.65.85,19.588,19.588,0,0,1-3.127.24h-4.664Zm24.278,21.15H274.61v-5.94H255.477v-10.6H272.7v-5.62H255.477v-9.54h18.179v-5.83H248.8v37.53Zm63.245-32.76a11.14,11.14,0,0,0-2.7-2.54,18.253,18.253,0,0,0-3.392-1.78,19.7,19.7,0,0,0-3.763-1.06,23.1,23.1,0,0,0-11.819,1.04,19.012,19.012,0,0,0-6.44,3.92,18.132,18.132,0,0,0-4.293,6.17,20.425,20.425,0,0,0-1.563,8.14,21.03,21.03,0,0,0,1.484,8.03,18.274,18.274,0,0,0,10.467,10.33,21.609,21.609,0,0,0,8.083,1.46,19.329,19.329,0,0,0,8.427-1.72,17.129,17.129,0,0,0,6.1-4.85l-5.353-3.76a10.484,10.484,0,0,1-3.763,3.15,11.536,11.536,0,0,1-5.353,1.19,13.127,13.127,0,0,1-5.247-1,11.519,11.519,0,0,1-4-2.84,12.712,12.712,0,0,1-2.57-4.37,16.722,16.722,0,0,1-.9-5.62,15.454,15.454,0,0,1,.927-5.41,12.965,12.965,0,0,1,2.65-4.34,12.434,12.434,0,0,1,4.108-2.92,13.015,13.015,0,0,1,5.3-1.06,12.793,12.793,0,0,1,4.664.93,8.582,8.582,0,0,1,3.869,2.94Zm4.3,32.76h6.678v-37.53h-6.678v37.53Zm10.2,0h7.473l3.392-8.59h16.271l3.5,8.59h7.632l-16.165-37.53h-5.777Zm13.144-14.31,5.883-15.27,5.777,15.27h-11.66Zm28.646,14.31h22.631v-5.94H375.018v-31.59H368.34v37.53Zm-236.8,26.24a11.14,11.14,0,0,0-2.7-2.54,18.222,18.222,0,0,0-3.392-1.78,19.661,19.661,0,0,0-3.763-1.06,23.1,23.1,0,0,0-11.819,1.04,19.008,19.008,0,0,0-6.439,3.92,18.133,18.133,0,0,0-4.293,6.17,20.432,20.432,0,0,0-1.563,8.14,21.037,21.037,0,0,0,1.484,8.03,18.27,18.27,0,0,0,10.468,10.33,21.607,21.607,0,0,0,8.082,1.46,19.323,19.323,0,0,0,8.427-1.72,17.112,17.112,0,0,0,6.095-4.85l-5.353-3.76a10.475,10.475,0,0,1-3.763,3.15,11.533,11.533,0,0,1-5.353,1.19,13.134,13.134,0,0,1-5.247-1,11.525,11.525,0,0,1-4-2.84,12.73,12.73,0,0,1-2.571-4.37,16.747,16.747,0,0,1-.9-5.62,15.431,15.431,0,0,1,.928-5.41,12.949,12.949,0,0,1,2.65-4.34,12.43,12.43,0,0,1,4.107-2.92,13.018,13.018,0,0,1,5.3-1.06,12.789,12.789,0,0,1,4.664.93,8.576,8.576,0,0,1,3.869,2.94Zm2.889,21.92a18.511,18.511,0,0,0,10.547,10.33,21.462,21.462,0,0,0,8.029,1.46,21.816,21.816,0,0,0,8.109-1.46,19.1,19.1,0,0,0,6.413-4.08,18.514,18.514,0,0,0,4.214-6.25,20.717,20.717,0,0,0,1.51-8.03,21.063,21.063,0,0,0-1.51-8.14,17.709,17.709,0,0,0-4.214-6.17,18.73,18.73,0,0,0-6.413-3.92,23.085,23.085,0,0,0-8.109-1.38,22.708,22.708,0,0,0-8.029,1.38,18.487,18.487,0,0,0-6.36,3.92,17.876,17.876,0,0,0-4.187,6.17,21.064,21.064,0,0,0-1.511,8.14A20.718,20.718,0,0,0,134.432,9672.13Zm6.678-13.44a13.182,13.182,0,0,1,2.623-4.34,12.219,12.219,0,0,1,4.055-2.92,12.828,12.828,0,0,1,5.273-1.06,13.018,13.018,0,0,1,5.3,1.06,12.153,12.153,0,0,1,4.081,2.92,13.2,13.2,0,0,1,2.624,4.34,15.454,15.454,0,0,1,.927,5.41,15.95,15.95,0,0,1-.927,5.54,12.919,12.919,0,0,1-2.65,4.37,12.084,12.084,0,0,1-4.108,2.89,13.039,13.039,0,0,1-5.247,1.03,12.847,12.847,0,0,1-5.22-1.03,12.133,12.133,0,0,1-4.081-2.89,12.888,12.888,0,0,1-2.65-4.37,15.926,15.926,0,0,1-.928-5.54A15.431,15.431,0,0,1,141.11,9658.69Zm37.625,13.44a18.511,18.511,0,0,0,10.547,10.33,21.458,21.458,0,0,0,8.029,1.46,21.824,21.824,0,0,0,8.109-1.46,19.1,19.1,0,0,0,6.413-4.08,18.514,18.514,0,0,0,4.214-6.25,20.717,20.717,0,0,0,1.51-8.03,21.063,21.063,0,0,0-1.51-8.14,17.709,17.709,0,0,0-4.214-6.17,18.73,18.73,0,0,0-6.413-3.92,23.093,23.093,0,0,0-8.109-1.38,22.7,22.7,0,0,0-8.029,1.38,18.469,18.469,0,0,0-6.36,3.92,17.876,17.876,0,0,0-4.187,6.17,21.064,21.064,0,0,0-1.511,8.14A20.718,20.718,0,0,0,178.735,9672.13Zm6.678-13.44a13.165,13.165,0,0,1,2.623-4.34,12.209,12.209,0,0,1,4.055-2.92,12.821,12.821,0,0,1,5.273-1.06,13.018,13.018,0,0,1,5.3,1.06,12.153,12.153,0,0,1,4.081,2.92,13.218,13.218,0,0,1,2.624,4.34,15.477,15.477,0,0,1,.927,5.41,15.973,15.973,0,0,1-.927,5.54,12.935,12.935,0,0,1-2.65,4.37,12.084,12.084,0,0,1-4.108,2.89,13.039,13.039,0,0,1-5.247,1.03,12.844,12.844,0,0,1-5.22-1.03,12.123,12.123,0,0,1-4.081-2.89,12.872,12.872,0,0,1-2.65-4.37,15.926,15.926,0,0,1-.928-5.54A15.431,15.431,0,0,1,185.413,9658.69Zm38.043,24.28h6.678v-15.53h5.141a26.022,26.022,0,0,0,5.618-.58,13.779,13.779,0,0,0,4.637-1.89,9.425,9.425,0,0,0,3.154-3.41,10.816,10.816,0,0,0,1.166-5.25,11.267,11.267,0,0,0-1.007-4.98,8.953,8.953,0,0,0-2.862-3.4,12.218,12.218,0,0,0-4.452-1.9,26.6,26.6,0,0,0-5.83-.59H223.456v37.53Zm6.678-21.15v-10.76h4.876a22.574,22.574,0,0,1,2.994.19,7.715,7.715,0,0,1,2.6.77,4.422,4.422,0,0,1,2.518,4.29,4.946,4.946,0,0,1-.689,2.75,4.776,4.776,0,0,1-1.855,1.67,8.582,8.582,0,0,1-2.65.85,19.588,19.588,0,0,1-3.127.24h-4.664Zm24.278,21.15h25.811v-5.94H261.09v-10.6h17.225v-5.62H261.09v-9.54h18.179v-5.83H254.412v37.53Zm31.922,0h6.678v-15.9h4.876l8.692,15.9h8.056l-10.017-16.64a11.574,11.574,0,0,0,6.28-3.48,9.576,9.576,0,0,0,2.306-6.65,10.1,10.1,0,0,0-1.166-5.03,9.557,9.557,0,0,0-3.1-3.34,13.168,13.168,0,0,0-4.425-1.83,23.585,23.585,0,0,0-5.141-.56H286.334v37.53Zm6.678-21.36v-10.55h6.042a17.076,17.076,0,0,1,2.623.21,7.507,7.507,0,0,1,2.412.8,5.184,5.184,0,0,1,1.749,1.56,4.322,4.322,0,0,1,.689,2.52,4.821,4.821,0,0,1-.742,2.78,5,5,0,0,1-1.882,1.67,8.2,8.2,0,0,1-2.57.8,19.686,19.686,0,0,1-2.862.21h-5.459Zm23.643,21.36h7.473l3.392-8.59h16.271l3.5,8.59h7.632l-16.165-37.53h-5.777Zm13.144-14.31,5.883-15.27,5.777,15.27H329.8Zm32.181,14.31h6.678v-31.7h11.5v-5.83h-29.68v5.83h11.5v31.7Zm21.973,0h6.678v-37.53h-6.678v37.53Zm14.167-10.84a18.511,18.511,0,0,0,10.547,10.33,21.467,21.467,0,0,0,8.03,1.46,21.824,21.824,0,0,0,8.109-1.46,19.109,19.109,0,0,0,6.413-4.08,18.511,18.511,0,0,0,4.213-6.25,20.718,20.718,0,0,0,1.511-8.03,21.064,21.064,0,0,0-1.511-8.14,17.706,17.706,0,0,0-4.213-6.17,18.739,18.739,0,0,0-6.413-3.92,23.093,23.093,0,0,0-8.109-1.38,22.713,22.713,0,0,0-8.03,1.38,18.487,18.487,0,0,0-6.36,3.92,17.889,17.889,0,0,0-4.187,6.17,21.063,21.063,0,0,0-1.51,8.14A20.717,20.717,0,0,0,398.12,9672.13Zm6.678-13.44a13.167,13.167,0,0,1,2.624-4.34,12.215,12.215,0,0,1,4.054-2.92,12.829,12.829,0,0,1,5.274-1.06,13.021,13.021,0,0,1,5.3,1.06,12.163,12.163,0,0,1,4.081,2.92,13.2,13.2,0,0,1,2.623,4.34,15.454,15.454,0,0,1,.928,5.41,15.95,15.95,0,0,1-.928,5.54,12.9,12.9,0,0,1-2.65,4.37A12.07,12.07,0,0,1,422,9676.9a13.039,13.039,0,0,1-5.247,1.03,12.852,12.852,0,0,1-5.221-1.03,12.143,12.143,0,0,1-4.081-2.89,12.9,12.9,0,0,1-2.65-4.37,15.95,15.95,0,0,1-.927-5.54A15.454,15.454,0,0,1,404.8,9658.69Zm38.044,24.28h6.678v-28.99h0.106l17.808,28.99h8.48v-37.53h-6.678v28.09H469.13l-17.437-28.09h-8.851v37.53Z" transform="translate(-97.563 -9585.5)"/></svg>
