<svg xmlns="http://www.w3.org/2000/svg" width="229.562" height="96.53" viewBox="0 0 229.562 96.53"><path fill="#313131" fill-rule="evenodd" d="M203.557,9363.97h6.36v-30.16h0.106l11.236,30.16h4.664l11.4-30.16h0.106v30.16h6.625v-37.53H233.555l-9.646,26.66H223.75L214,9326.44H203.557v37.53Zm48.363,0h25.811v-5.94H258.6v-10.6h17.225v-5.62H258.6v-9.54h18.179v-5.83H251.92v37.53Zm31.921,0h13.3a25.918,25.918,0,0,0,7.367-1.09,20.062,20.062,0,0,0,6.678-3.36,17.451,17.451,0,0,0,4.823-5.83,18.128,18.128,0,0,0,1.855-8.48,19.13,19.13,0,0,0-1.855-8.88,16.516,16.516,0,0,0-4.823-5.78,19.08,19.08,0,0,0-6.678-3.15,29.318,29.318,0,0,0-7.367-.96h-13.3v37.53Zm6.678-5.83v-25.97h5.565a26.167,26.167,0,0,1,5.194.53,12.574,12.574,0,0,1,4.69,1.96,10.66,10.66,0,0,1,3.419,3.97,14.243,14.243,0,0,1,1.325,6.58,13.333,13.333,0,0,1-1.325,6.3,11,11,0,0,1-3.419,3.95,13.647,13.647,0,0,1-4.69,2.07,22.47,22.47,0,0,1-5.194.61h-5.565Zm33.3,5.83H330.5v-37.53h-6.678v37.53Zm10.2,0h7.473l3.392-8.59h16.271l3.5,8.59h7.632l-16.165-37.53h-5.777Zm13.144-14.31,5.883-15.27,5.777,15.27h-11.66Zm-174.692,73.31h6.678v-15.53h5.141a26.016,26.016,0,0,0,5.618-.58,13.776,13.776,0,0,0,4.638-1.89,9.413,9.413,0,0,0,3.153-3.41,10.816,10.816,0,0,0,1.166-5.25,11.267,11.267,0,0,0-1.007-4.98,8.935,8.935,0,0,0-2.862-3.4,12.218,12.218,0,0,0-4.452-1.9,26.591,26.591,0,0,0-5.83-.59H172.473v37.53Zm6.678-21.15v-10.76h4.876a22.578,22.578,0,0,1,3,.19,7.721,7.721,0,0,1,2.6.77,4.423,4.423,0,0,1,2.517,4.29,4.946,4.946,0,0,1-.689,2.75,4.769,4.769,0,0,1-1.855,1.67,8.573,8.573,0,0,1-2.65.85,19.579,19.579,0,0,1-3.127.24h-4.664Zm17.007,21.15h7.473l3.392-8.59h16.271l3.5,8.59h7.632l-16.165-37.53h-5.777Zm13.144-14.31,5.883-15.27,5.777,15.27H209.3Zm28.646,14.31h6.678v-15.9H249.5l8.692,15.9h8.056l-10.017-16.64a11.577,11.577,0,0,0,6.281-3.48,9.575,9.575,0,0,0,2.305-6.65,10.091,10.091,0,0,0-1.166-5.03,9.545,9.545,0,0,0-3.1-3.34,13.165,13.165,0,0,0-4.426-1.83,23.571,23.571,0,0,0-5.141-.56H237.948v37.53Zm6.678-21.36v-10.55h6.042a17.088,17.088,0,0,1,2.624.21,7.492,7.492,0,0,1,2.411.8,5.166,5.166,0,0,1,1.749,1.56,4.315,4.315,0,0,1,.689,2.52,4.813,4.813,0,0,1-.742,2.78,4.99,4.99,0,0,1-1.881,1.67,8.2,8.2,0,0,1-2.571.8,19.686,19.686,0,0,1-2.862.21h-5.459Zm34.307,21.36h6.678v-31.7h11.5v-5.83h-29.68v5.83h11.5v31.7Zm21.974,0h6.678v-28.99h0.106l17.808,28.99h8.48v-37.53H327.3v28.09H327.2l-17.437-28.09h-8.851v37.53Zm40.915,0h25.811v-5.94H348.5v-10.6h17.225v-5.62H348.5v-9.54h18.179v-5.83H341.822v37.53Zm31.922,0h6.678v-15.9H385.3l8.692,15.9h8.056l-10.017-16.64a11.574,11.574,0,0,0,6.28-3.48,9.576,9.576,0,0,0,2.306-6.65,10.1,10.1,0,0,0-1.166-5.03,9.547,9.547,0,0,0-3.1-3.34,13.168,13.168,0,0,0-4.425-1.83,23.585,23.585,0,0,0-5.141-.56H373.744v37.53Zm6.678-21.36v-10.55h6.042a17.076,17.076,0,0,1,2.623.21,7.507,7.507,0,0,1,2.412.8,5.184,5.184,0,0,1,1.749,1.56,4.322,4.322,0,0,1,.689,2.52,4.821,4.821,0,0,1-.742,2.78,4.993,4.993,0,0,1-1.882,1.67,8.2,8.2,0,0,1-2.57.8,19.686,19.686,0,0,1-2.862.21h-5.459Z" transform="translate(-172.469 -9326.44)"/></svg>
