<svg xmlns="http://www.w3.org/2000/svg" width="299.969" height="39.44" viewBox="0 0 299.969 39.44"><path fill="#313131" fill-rule="evenodd" d="M163.15,9877.52a14.211,14.211,0,0,0-5.115-3.02,17.879,17.879,0,0,0-5.8-1.01,19.283,19.283,0,0,0-5.009.66,13.906,13.906,0,0,0-4.4,2.02,10.583,10.583,0,0,0-3.127,3.41,9.729,9.729,0,0,0-1.192,4.93,10.233,10.233,0,0,0,.848,4.43,9.446,9.446,0,0,0,2.2,2.99,10.95,10.95,0,0,0,3.048,1.96,33.292,33.292,0,0,0,3.392,1.28q1.749,0.585,3.339,1.11a13.008,13.008,0,0,1,2.756,1.25,6.127,6.127,0,0,1,1.855,1.69,4.224,4.224,0,0,1,.689,2.47,5,5,0,0,1-.61,2.57,5.494,5.494,0,0,1-1.59,1.72,6.271,6.271,0,0,1-2.2.98,9.855,9.855,0,0,1-6.917-.82,9.57,9.57,0,0,1-3.683-3.02l-4.77,4.45a13.777,13.777,0,0,0,5.724,4,19.717,19.717,0,0,0,7.155,1.35,18.462,18.462,0,0,0,5.247-.74,12.589,12.589,0,0,0,4.346-2.23,10.793,10.793,0,0,0,2.968-3.73,11.776,11.776,0,0,0,1.113-5.28,9.393,9.393,0,0,0-1.034-4.61,9.755,9.755,0,0,0-2.65-3.07,14.422,14.422,0,0,0-3.551-1.96c-1.29-.5-2.536-0.94-3.736-1.33-1.06-.32-2.033-0.63-2.915-0.95a10.15,10.15,0,0,1-2.253-1.11,4.877,4.877,0,0,1-1.457-1.54,4.215,4.215,0,0,1-.53-2.17,4.367,4.367,0,0,1,.609-2.36,4.853,4.853,0,0,1,1.564-1.59,6.9,6.9,0,0,1,2.12-.9,9.314,9.314,0,0,1,2.332-.3,8.918,8.918,0,0,1,3.9.93,8.137,8.137,0,0,1,3,2.31Zm35.928-3.08H192.4v23.48a12.76,12.76,0,0,1-.424,3.26,8.024,8.024,0,0,1-1.405,2.89,7.236,7.236,0,0,1-2.6,2.07,10.529,10.529,0,0,1-8,0,7.236,7.236,0,0,1-2.6-2.07,7.989,7.989,0,0,1-1.4-2.89,12.672,12.672,0,0,1-.424-3.26v-23.48h-6.678v23.75a15.743,15.743,0,0,0,1.139,6.12,13.328,13.328,0,0,0,3.18,4.64,14.314,14.314,0,0,0,4.8,2.94,17.927,17.927,0,0,0,11.978,0,14.057,14.057,0,0,0,4.77-2.94,13.83,13.83,0,0,0,3.18-4.64,15.458,15.458,0,0,0,1.166-6.12v-23.75Zm7.594,37.53h6.678v-15.53h5.141a26.022,26.022,0,0,0,5.618-.58,13.785,13.785,0,0,0,4.638-1.89,9.422,9.422,0,0,0,3.153-3.41,10.816,10.816,0,0,0,1.166-5.25,11.267,11.267,0,0,0-1.007-4.98,8.953,8.953,0,0,0-2.862-3.4,12.218,12.218,0,0,0-4.452-1.9,26.6,26.6,0,0,0-5.83-.59H206.672v37.53Zm6.678-21.15v-10.76h4.876a22.574,22.574,0,0,1,2.994.19,7.727,7.727,0,0,1,2.6.77,4.423,4.423,0,0,1,2.517,4.29,4.946,4.946,0,0,1-.689,2.75,4.776,4.776,0,0,1-1.855,1.67,8.582,8.582,0,0,1-2.65.85,19.588,19.588,0,0,1-3.127.24H213.35Zm24.279,21.15h6.678v-15.53h5.141a26.029,26.029,0,0,0,5.618-.58,13.779,13.779,0,0,0,4.637-1.89,9.425,9.425,0,0,0,3.154-3.41,10.827,10.827,0,0,0,1.166-5.25,11.281,11.281,0,0,0-1.007-4.98,8.953,8.953,0,0,0-2.862-3.4,12.233,12.233,0,0,0-4.452-1.9,26.6,26.6,0,0,0-5.83-.59H237.629v37.53Zm6.678-21.15v-10.76h4.876a22.574,22.574,0,0,1,2.994.19,7.721,7.721,0,0,1,2.6.77,4.422,4.422,0,0,1,2.518,4.29,4.954,4.954,0,0,1-.689,2.75,4.783,4.783,0,0,1-1.855,1.67,8.59,8.59,0,0,1-2.65.85,19.6,19.6,0,0,1-3.127.24h-4.664Zm24.638,10.31a18.511,18.511,0,0,0,10.547,10.33,21.467,21.467,0,0,0,8.03,1.46,21.824,21.824,0,0,0,8.109-1.46,19.1,19.1,0,0,0,6.413-4.08,18.511,18.511,0,0,0,4.213-6.25,20.718,20.718,0,0,0,1.511-8.03,21.064,21.064,0,0,0-1.511-8.14,17.706,17.706,0,0,0-4.213-6.17,18.73,18.73,0,0,0-6.413-3.92,23.093,23.093,0,0,0-8.109-1.38,22.713,22.713,0,0,0-8.03,1.38,18.487,18.487,0,0,0-6.36,3.92,17.889,17.889,0,0,0-4.187,6.17,21.063,21.063,0,0,0-1.51,8.14A20.717,20.717,0,0,0,268.945,9901.13Zm6.678-13.44a13.184,13.184,0,0,1,2.624-4.34,12.215,12.215,0,0,1,4.054-2.92,12.829,12.829,0,0,1,5.274-1.06,13.018,13.018,0,0,1,5.3,1.06,12.153,12.153,0,0,1,4.081,2.92,13.2,13.2,0,0,1,2.623,4.34,15.454,15.454,0,0,1,.928,5.41,15.95,15.95,0,0,1-.928,5.54,12.9,12.9,0,0,1-2.65,4.37,12.07,12.07,0,0,1-4.107,2.89,13.039,13.039,0,0,1-5.247,1.03,12.852,12.852,0,0,1-5.221-1.03,12.143,12.143,0,0,1-4.081-2.89,12.9,12.9,0,0,1-2.65-4.37,15.95,15.95,0,0,1-.927-5.54A15.454,15.454,0,0,1,275.623,9887.69Zm38.044,24.28h6.678v-15.9h4.876l8.692,15.9h8.056l-10.017-16.64a11.574,11.574,0,0,0,6.28-3.48,9.576,9.576,0,0,0,2.306-6.65,10.091,10.091,0,0,0-1.166-5.03,9.547,9.547,0,0,0-3.1-3.34,13.168,13.168,0,0,0-4.425-1.83,23.578,23.578,0,0,0-5.141-.56H313.667v37.53Zm6.678-21.36v-10.55h6.042a17.076,17.076,0,0,1,2.623.21,7.5,7.5,0,0,1,2.412.8,5.184,5.184,0,0,1,1.749,1.56,4.315,4.315,0,0,1,.689,2.52,4.821,4.821,0,0,1-.742,2.78,4.986,4.986,0,0,1-1.882,1.67,8.2,8.2,0,0,1-2.57.8,19.686,19.686,0,0,1-2.862.21h-5.459Zm34.307,21.36h6.678v-31.7h11.5v-5.83h-29.68v5.83h11.5v31.7Zm21.973,0h25.811v-5.94H383.3v-10.6h17.225v-5.62H383.3v-9.54h18.179v-5.83H376.625v37.53Zm31.921,0h6.678v-15.9H420.1l8.692,15.9h8.056l-10.017-16.64a11.577,11.577,0,0,0,6.281-3.48,9.575,9.575,0,0,0,2.3-6.65,10.091,10.091,0,0,0-1.166-5.03,9.545,9.545,0,0,0-3.1-3.34,13.173,13.173,0,0,0-4.426-1.83,23.571,23.571,0,0,0-5.141-.56H408.546v37.53Zm6.678-21.36v-10.55h6.042a17.088,17.088,0,0,1,2.624.21,7.492,7.492,0,0,1,2.411.8,5.166,5.166,0,0,1,1.749,1.56,4.315,4.315,0,0,1,.689,2.52,4.813,4.813,0,0,1-.742,2.78,4.99,4.99,0,0,1-1.881,1.67,8.211,8.211,0,0,1-2.571.8,19.686,19.686,0,0,1-2.862.21h-5.459Z" transform="translate(-136.875 -9873.5)"/></svg>
