<svg xmlns="http://www.w3.org/2000/svg" width="332.031" height="39.4" viewBox="0 0 332.031 39.4"><path fill="#313131" fill-rule="evenodd" d="M123.029,10159.1a18.611,18.611,0,0,0,4.187,6.3,20.211,20.211,0,0,0,6.36,4.1,23.168,23.168,0,0,0,8.029,1.4,23.551,23.551,0,0,0,8.109-1.4,20.474,20.474,0,0,0,6.413-4.1,18.431,18.431,0,0,0,4.214-6.3,22.212,22.212,0,0,0,0-16.1,17.119,17.119,0,0,0-4.214-6.2,18.383,18.383,0,0,0-6.413-3.9,21.406,21.406,0,0,0-8.109-1.4,21.054,21.054,0,0,0-8.029,1.4,18.145,18.145,0,0,0-6.36,3.9,17.274,17.274,0,0,0-4.187,6.2A22.2,22.2,0,0,0,123.029,10159.1Zm6.678-13.4a13.67,13.67,0,0,1,2.623-4.4,12.6,12.6,0,0,1,4.055-2.9,12.814,12.814,0,0,1,5.273-1,13,13,0,0,1,5.3,1,12.53,12.53,0,0,1,4.081,2.9,13.69,13.69,0,0,1,2.624,4.4,15.682,15.682,0,0,1,.927,5.4,15.446,15.446,0,0,1-.927,5.5,12.494,12.494,0,0,1-2.65,4.4,12.253,12.253,0,0,1-9.355,3.9,12.674,12.674,0,0,1-5.22-1,12.9,12.9,0,0,1-4.081-2.9,12.464,12.464,0,0,1-2.65-4.4,15.424,15.424,0,0,1-.928-5.5A15.659,15.659,0,0,1,129.707,10145.7Zm38.043,24.3h6.678v-15.9H179.3L188,10170h8.056l-10.017-16.7a11.613,11.613,0,0,0,6.281-3.4,9.9,9.9,0,0,0,2.305-6.7,9.717,9.717,0,0,0-1.166-5,10,10,0,0,0-3.1-3.4,15,15,0,0,0-4.426-1.8,21.877,21.877,0,0,0-5.141-.6H167.75v37.6Zm6.678-21.4v-10.5h6.042a11.847,11.847,0,0,1,2.624.2,6.28,6.28,0,0,1,2.411.8,5.706,5.706,0,0,1,1.749,1.5,4.381,4.381,0,0,1,.689,2.5,4.687,4.687,0,0,1-.742,2.8,4.609,4.609,0,0,1-1.881,1.7,7.083,7.083,0,0,1-2.571.8,27.522,27.522,0,0,1-2.862.2h-5.459Zm58.533,0H218.6v5.5h7.9v9.5a19.046,19.046,0,0,1-7.473,1.3,14.142,14.142,0,0,1-5.591-1,12.606,12.606,0,0,1-4.187-2.9,12.464,12.464,0,0,1-2.65-4.4,15.424,15.424,0,0,1-.928-5.5,15.659,15.659,0,0,1,.928-5.4,13.67,13.67,0,0,1,2.623-4.4,12.456,12.456,0,0,1,4.108-2.9,13.323,13.323,0,0,1,5.379-1,13,13,0,0,1,5.592,1.1,10.373,10.373,0,0,1,4,2.7l4.611-5a17.518,17.518,0,0,0-6.015-3.4,24.111,24.111,0,0,0-8.242-1.3,21.256,21.256,0,0,0-8.056,1.4,18.652,18.652,0,0,0-6.439,3.9,17.509,17.509,0,0,0-4.293,6.2,20.126,20.126,0,0,0-1.564,8.1,20.6,20.6,0,0,0,1.511,8,18.429,18.429,0,0,0,4.213,6.3,20.321,20.321,0,0,0,6.466,4.1,24.487,24.487,0,0,0,8.321,1.4,37.2,37.2,0,0,0,7.871-.7,36.419,36.419,0,0,0,6.28-2.2v-19.4Zm3.2,21.4h7.473l3.392-8.6h16.271l3.5,8.6h7.632l-16.165-37.6h-5.777Zm13.144-14.3,5.883-15.3,5.777,15.3H249.3Zm28.646,14.3h6.678v-29h0.106l17.808,29h8.48v-37.6h-6.678v28.1h-0.106l-17.437-28.1h-8.851v37.6Zm40.911,0h6.678v-37.6h-6.678v37.6Zm11.956,0h28.673v-6H338.658l20.511-25.5v-6.1H331.132v5.9h20.087l-20.4,25.6v6.1Zm34.233,0h25.811v-6H371.725v-10.6H388.95v-5.6H371.725v-9.5H389.9v-5.9H365.047v37.6Zm31.921,0h6.678v-15.9h4.876l8.692,15.9h8.056l-10.017-16.7a11.61,11.61,0,0,0,6.28-3.4,9.9,9.9,0,0,0,2.306-6.7,9.717,9.717,0,0,0-1.166-5,10,10,0,0,0-3.1-3.4,15,15,0,0,0-4.425-1.8,21.884,21.884,0,0,0-5.141-.6H396.968v37.6Zm6.678-21.4v-10.5h6.042a11.838,11.838,0,0,1,2.623.2,6.285,6.285,0,0,1,2.412.8,5.729,5.729,0,0,1,1.749,1.5,4.381,4.381,0,0,1,.689,2.5,4.694,4.694,0,0,1-.742,2.8,4.606,4.606,0,0,1-1.882,1.7,7.078,7.078,0,0,1-2.57.8,27.522,27.522,0,0,1-2.862.2h-5.459Zm49.645-13.1a15.234,15.234,0,0,0-5.115-3,17.756,17.756,0,0,0-10.812-.3,13.054,13.054,0,0,0-4.4,2,10.252,10.252,0,0,0-3.127,3.4,9.667,9.667,0,0,0-1.192,4.9,9.765,9.765,0,0,0,.848,4.4,9.178,9.178,0,0,0,2.2,3,11.821,11.821,0,0,0,3.048,2c1.13,0.5,2.261.9,3.392,1.3,1.166,0.4,2.279.7,3.339,1.1a10.212,10.212,0,0,1,2.756,1.2,7.366,7.366,0,0,1,1.855,1.7,4.381,4.381,0,0,1,.689,2.5,5.2,5.2,0,0,1-.61,2.6,7.28,7.28,0,0,1-1.59,1.7,7.9,7.9,0,0,1-2.2,1,9.964,9.964,0,0,1-2.385.3,9.769,9.769,0,0,1-4.532-1.2,8.944,8.944,0,0,1-3.683-3l-4.77,4.5a14.445,14.445,0,0,0,5.724,4,19.659,19.659,0,0,0,7.155,1.3,18.094,18.094,0,0,0,5.247-.7,14.525,14.525,0,0,0,4.346-2.2,11.246,11.246,0,0,0,2.968-3.8,11.627,11.627,0,0,0,1.113-5.3,9.6,9.6,0,0,0-1.034-4.6,9.7,9.7,0,0,0-2.65-3,12.319,12.319,0,0,0-3.551-2c-1.29-.5-2.535-0.9-3.736-1.3-1.06-.3-2.032-0.7-2.915-1a10.148,10.148,0,0,1-2.253-1.1,4.485,4.485,0,0,1-1.457-1.5,4.433,4.433,0,0,1-.53-2.2,4.7,4.7,0,0,1,.609-2.4,7.157,7.157,0,0,1,1.564-1.6,7.423,7.423,0,0,1,2.12-.9,18.331,18.331,0,0,1,2.332-.2,9.159,9.159,0,0,1,3.895.9,8.1,8.1,0,0,1,3,2.3Z" transform="translate(-121.531 -10131.5)"/></svg>
