<svg xmlns="http://www.w3.org/2000/svg" width="168.719" height="37.53" viewBox="0 0 168.719 37.53"><path fill="#313131" fill-rule="evenodd" d="M203.557,9392.97h6.36v-30.16h0.106l11.236,30.16h4.664l11.4-30.16h0.106v30.16h6.625v-37.53H233.555l-9.646,26.66H223.75L214,9355.44H203.557v37.53Zm48.363,0h25.811v-5.94H258.6v-10.6h17.225v-5.62H258.6v-9.54h18.179v-5.83H251.92v37.53Zm31.921,0h13.3a25.918,25.918,0,0,0,7.367-1.09,20.062,20.062,0,0,0,6.678-3.36,17.451,17.451,0,0,0,4.823-5.83,18.128,18.128,0,0,0,1.855-8.48,19.13,19.13,0,0,0-1.855-8.88,16.516,16.516,0,0,0-4.823-5.78,19.08,19.08,0,0,0-6.678-3.15,29.318,29.318,0,0,0-7.367-.96h-13.3v37.53Zm6.678-5.83v-25.97h5.565a26.167,26.167,0,0,1,5.194.53,12.574,12.574,0,0,1,4.69,1.96,10.66,10.66,0,0,1,3.419,3.97,14.243,14.243,0,0,1,1.325,6.58,13.333,13.333,0,0,1-1.325,6.3,11,11,0,0,1-3.419,3.95,13.647,13.647,0,0,1-4.69,2.07,22.47,22.47,0,0,1-5.194.61h-5.565Zm33.3,5.83H330.5v-37.53h-6.678v37.53Zm10.2,0h7.473l3.392-8.59h16.271l3.5,8.59h7.632l-16.165-37.53h-5.777Zm13.144-14.31,5.883-15.27,5.777,15.27h-11.66Z" transform="translate(-203.562 -9355.44)"/></svg>
