<svg xmlns="http://www.w3.org/2000/svg" width="509.406" height="38.81" viewBox="0 0 509.406 38.81"><path fill="#313131" fill-rule="evenodd" d="M253.044,2760.98a8.279,8.279,0,0,0-4-4.34,9.927,9.927,0,0,0-2.938-.96v-0.11a9.318,9.318,0,0,0,4.368-2.88,7.686,7.686,0,0,0,1.664-5.07,8.12,8.12,0,0,0-4.108-7.52,13.078,13.078,0,0,0-4.056-1.51,22.866,22.866,0,0,0-4.368-.44H224.938v36.82H239.6a24.006,24.006,0,0,0,5.174-.55,13.782,13.782,0,0,0,4.5-1.79,9.472,9.472,0,0,0,3.172-3.3,9.938,9.938,0,0,0,1.2-5.07A8.56,8.56,0,0,0,253.044,2760.98Zm-10.868-9.18a6.41,6.41,0,0,1-3.874,1.02h-4.784v-7.6h4.368a8.4,8.4,0,0,1,4.238.86,2.944,2.944,0,0,1,1.43,2.73A3.468,3.468,0,0,1,242.176,2751.8Zm2,13.83a3.836,3.836,0,0,1-1.482,1.33,6.815,6.815,0,0,1-2.028.65,13.586,13.586,0,0,1-2.158.18h-4.992v-8.42h4.94a10.041,10.041,0,0,1,4.576.88,3.253,3.253,0,0,1,1.716,3.17A3.889,3.889,0,0,1,244.178,2765.63Zm23.956,9.34v-36.82H259.19v36.82h8.944Zm33.144-29.23v-7.59H271.586v7.59h10.4v29.23h8.892v-29.23h10.4Zm49.5-7.59h-9.828l-8.476,26.11H332.27l-8.528-26.11h-9.984l13.936,36.82h8.892Zm34.891,36.82-15.288-36.82h-8.632l-15.444,36.82h9.672l2.7-7.23h14.248l2.86,7.23h9.88Zm-15.184-14.35h-9.256l4.68-12.64Zm41.366,14.35v-7.75H397.607v-29.07h-8.944v36.82h23.192Zm26.722,0v-7.75H424.329v-29.07h-8.944v36.82h23.192Zm29.218,0v-7.59H450.687v-7.65h15.288v-7.12H450.687v-6.97h16.172v-7.49H442.107v36.82H467.8Zm38.277-36.82h-10.4l-7.852,13.63-7.852-13.63H469.2l13.832,21.22v15.6h8.892v-15.6Zm12.126,0h-7.54l-3.744,14.09h6.552Zm22.791,13.73a12.391,12.391,0,0,0-4.706-2.73,18.11,18.11,0,0,0-5.694-.91,14.88,14.88,0,0,0-3.77.49,11.189,11.189,0,0,0-3.458,1.54,8.254,8.254,0,0,0-2.548,2.68,7.529,7.529,0,0,0-.988,3.97,6.645,6.645,0,0,0,.676,3.12,6.964,6.964,0,0,0,1.742,2.19,8.383,8.383,0,0,0,2.418,1.4,18.584,18.584,0,0,0,2.7.83,22.812,22.812,0,0,1,3.9,1.2,1.866,1.866,0,0,1,1.248,1.77,1.773,1.773,0,0,1-1.014,1.74,4.633,4.633,0,0,1-2.054.49,7.73,7.73,0,0,1-3.536-.83,9.495,9.495,0,0,1-2.808-2.08l-4.784,5.05a13.185,13.185,0,0,0,5.07,2.99,19.691,19.691,0,0,0,6.214,1.01,17.215,17.215,0,0,0,3.952-.47,10.926,10.926,0,0,0,3.562-1.51,7.762,7.762,0,0,0,3.562-6.86,6.687,6.687,0,0,0-.728-3.22,7.1,7.1,0,0,0-1.924-2.29,10.185,10.185,0,0,0-2.678-1.51,18.771,18.771,0,0,0-2.938-.88,25.762,25.762,0,0,1-3.614-1.04,1.618,1.618,0,0,1-1.118-1.56,1.652,1.652,0,0,1,1.014-1.62,5.233,5.233,0,0,1,2.21-.46,6.751,6.751,0,0,1,2.964.67,9.478,9.478,0,0,1,2.444,1.67Zm50.543-13.73H581.7l-8.476,26.11H573.02l-8.528-26.11h-9.984l13.936,36.82h8.892Zm11.824,36.82v-36.82h-8.944v36.82h8.944Zm32.375-33.23a16.383,16.383,0,0,0-5.694-3.38,19.174,19.174,0,0,0-6.37-1.14,20.432,20.432,0,0,0-5.148.65,13.91,13.91,0,0,0-4.576,2.05,10.855,10.855,0,0,0-3.276,3.59,10.385,10.385,0,0,0-1.248,5.25,10.056,10.056,0,0,0,.806,4.24,9.213,9.213,0,0,0,2.132,2.96,11.43,11.43,0,0,0,3.016,2,32.812,32.812,0,0,0,3.458,1.36c1.213,0.38,2.3.73,3.25,1.06a12.515,12.515,0,0,1,2.392,1.09,5.051,5.051,0,0,1,1.482,1.33,2.969,2.969,0,0,1,.52,1.77,3.919,3.919,0,0,1-.416,1.87,3.381,3.381,0,0,1-1.118,1.25,4.664,4.664,0,0,1-1.638.67,8.766,8.766,0,0,1-1.924.21,9.611,9.611,0,0,1-4.394-1.12,10.67,10.67,0,0,1-3.562-2.78l-5.824,5.93a16.2,16.2,0,0,0,6.136,3.93,21.873,21.873,0,0,0,7.644,1.37,19.226,19.226,0,0,0,5.252-.72,13.5,13.5,0,0,0,4.524-2.24,11,11,0,0,0,3.146-3.82,12.016,12.016,0,0,0,1.17-5.49,8.9,8.9,0,0,0-1.092-4.6,10.482,10.482,0,0,0-2.756-3.09,14.6,14.6,0,0,0-3.692-2.01c-1.352-.5-2.652-0.96-3.9-1.37q-1.3-.42-2.34-0.81a10.291,10.291,0,0,1-1.794-.86,3.4,3.4,0,0,1-1.144-1.09,2.912,2.912,0,0,1-.39-1.56,3.007,3.007,0,0,1,.494-1.79,4.1,4.1,0,0,1,1.222-1.15,4.845,4.845,0,0,1,1.638-.6,11.005,11.005,0,0,1,1.794-.15,8.322,8.322,0,0,1,3.562.86,8.012,8.012,0,0,1,2.99,2.31Zm14.19,33.23v-36.82h-8.944v36.82h8.944Zm44.034-26.55a17.6,17.6,0,0,0-4.186-6.06,18.634,18.634,0,0,0-6.37-3.84,24.18,24.18,0,0,0-15.99,0,18.67,18.67,0,0,0-6.344,3.84,17.571,17.571,0,0,0-4.186,6.06,20.306,20.306,0,0,0-1.508,7.98,20.533,20.533,0,0,0,1.508,7.99,18.063,18.063,0,0,0,4.186,6.18,18.527,18.527,0,0,0,6.344,3.98,23.372,23.372,0,0,0,15.99,0,18.488,18.488,0,0,0,6.37-3.98,18.091,18.091,0,0,0,4.186-6.18,20.551,20.551,0,0,0,1.508-7.99A20.324,20.324,0,0,0,693.955,2748.42Zm-8.788,12.59a10.738,10.738,0,0,1-2.184,3.61,10.2,10.2,0,0,1-3.328,2.37,11.12,11.12,0,0,1-8.528,0,9.9,9.9,0,0,1-3.3-2.37,10.963,10.963,0,0,1-2.158-3.61,13.2,13.2,0,0,1-.78-4.61,13.037,13.037,0,0,1,.754-4.47,10.036,10.036,0,0,1,5.486-5.9,10.384,10.384,0,0,1,4.264-.86,10.57,10.57,0,0,1,4.29.86,9.908,9.908,0,0,1,3.328,2.34,10.744,10.744,0,0,1,2.158,3.56,12.654,12.654,0,0,1,.78,4.47A13.2,13.2,0,0,1,685.167,2761.01Zm49.181,13.96v-36.82h-8.632l0.208,24.03h-0.156L711,2738.15H700.86v36.82h8.632l-0.208-24.08h0.156l14.82,24.08h10.088Z" transform="translate(-224.938 -2737.16)"/></svg>
