<svg xmlns="http://www.w3.org/2000/svg" viewBox="0 0 83.57 55.95"><defs><style>.cls-1{fill:none;}</style></defs><g fill="#fff"><path d="M51.3,14.09a6.77,6.77,0,0,0-3.75-1.87,6.88,6.88,0,0,0,3-2,5.41,5.41,0,0,0,1.27-3.67,6.16,6.16,0,0,0-.71-3,6.13,6.13,0,0,0-1.83-2A7.62,7.62,0,0,0,46.71.35,12.37,12.37,0,0,0,43.81,0H33.67V25.94h9.38a17.4,17.4,0,0,0,3.6-.38,9.57,9.57,0,0,0,3.16-1.27A6.85,6.85,0,0,0,52,22a7,7,0,0,0,.86-3.6A5.78,5.78,0,0,0,51.3,14.09Zm-12.83.52h4.18a8.52,8.52,0,0,1,4.12.78,2.9,2.9,0,0,1,1.32,2.74,3.26,3.26,0,0,1-.54,2,3.47,3.47,0,0,1-1.37,1.12,5.84,5.84,0,0,1-1.84.52,14.13,14.13,0,0,1-1.87.13h-4Zm7.38-5a5.7,5.7,0,0,1-3.42.88h-4V4H42a7.78,7.78,0,0,1,3.79.71A2.51,2.51,0,0,1,47,7.09,2.94,2.94,0,0,1,45.85,9.58Z"/><polygon points="41.78 45.04 0 3.26 3.19 0.07 41.78 38.66 80.38 0.07 83.57 3.26 41.78 45.04"/><path class="cls-1" d="M71.37,52.73a7.51,7.51,0,0,0,.07-1,7.65,7.65,0,0,0-.07-1.06,4.17,4.17,0,0,0-.24-.94,1.62,1.62,0,0,0-.4-.6.65.65,0,0,0-.49-.18.67.67,0,0,0-.51.18,1.62,1.62,0,0,0-.4.6,3.73,3.73,0,0,0-.23.93,8.14,8.14,0,0,0,0,2.13,3.54,3.54,0,0,0,.23.92,1.69,1.69,0,0,0,.39.59.75.75,0,0,0,.52.18.73.73,0,0,0,.5-.18,1.69,1.69,0,0,0,.39-.59A4.22,4.22,0,0,0,71.37,52.73Z"/><path class="cls-1" d="M3.71,50.33a.89.89,0,0,0,.08-.4.78.78,0,0,0-.08-.37.72.72,0,0,0-.24-.25,1.2,1.2,0,0,0-.4-.16,2.91,2.91,0,0,0-.6-.06H1.62v1.68H2.68a1.73,1.73,0,0,0,.45-.05,1.09,1.09,0,0,0,.35-.15A.76.76,0,0,0,3.71,50.33Z"/><path class="cls-1" d="M3.25,54.18a1.57,1.57,0,0,0,.49-.2.76.76,0,0,0,.4-.72.82.82,0,0,0-.31-.73,1.94,1.94,0,0,0-1.13-.27H1.62v2h.95A3.82,3.82,0,0,0,3.25,54.18Z"/><polygon class="cls-1" points="27.72 52.28 29.63 52.28 28.67 49.98 27.72 52.28"/><path d="M4.75,51.38A1.39,1.39,0,0,0,5,51.17a2,2,0,0,0,.45-1.29,2.22,2.22,0,0,0-.27-1.13A2.16,2.16,0,0,0,4.45,48a2.71,2.71,0,0,0-.91-.36,4.18,4.18,0,0,0-.92-.1H0v8.19H2.6a4.53,4.53,0,0,0,1.26-.16,3.1,3.1,0,0,0,1-.48,2.32,2.32,0,0,0,.67-.79,2.36,2.36,0,0,0,.23-1,2.18,2.18,0,0,0-.59-1.59A3.39,3.39,0,0,0,4.75,51.38Zm-2.07-.61H1.62V49.09h.85a2.91,2.91,0,0,1,.6.06,1.2,1.2,0,0,1,.4.16.72.72,0,0,1,.24.25.78.78,0,0,1,.08.37.89.89,0,0,1-.08.4.76.76,0,0,1-.23.24,1.09,1.09,0,0,1-.35.15A1.73,1.73,0,0,1,2.68,50.77ZM1.62,52.26H2.7a1.94,1.94,0,0,1,1.13.27.82.82,0,0,1,.31.73.76.76,0,0,1-.4.72,1.57,1.57,0,0,1-.49.2,3.82,3.82,0,0,1-.68.06H1.62Z"/><rect x="6.77" y="47.57" width="1.62" height="8.19"/><polygon points="9.23 49.11 11.68 49.11 11.68 55.76 13.3 55.76 13.3 49.11 15.75 49.11 15.75 47.57 9.23 47.57 9.23 49.11"/><polygon points="24.35 47.57 22.27 53.14 20.19 47.57 18.44 47.57 21.57 55.76 22.95 55.76 26.09 47.57 24.35 47.57"/><path d="M28,47.57,24.5,55.76h1.78l.8-1.92h3.19l.81,1.92h1.78l-3.51-8.19Zm-.32,4.71,1-2.3,1,2.3Z"/><polygon points="35.28 47.57 33.66 47.57 33.66 55.76 38.69 55.76 38.69 54.22 35.28 54.22 35.28 47.57"/><polygon points="41.16 47.57 39.54 47.57 39.54 55.76 44.57 55.76 44.57 54.22 41.16 54.22 41.16 47.57"/><polygon points="47.05 52.28 50.59 52.28 50.59 50.74 47.05 50.74 47.05 49.11 50.84 49.11 50.84 47.57 45.43 47.57 45.43 55.76 50.97 55.76 50.97 54.22 47.05 54.22 47.05 52.28"/><polygon points="55.38 50.72 53.42 47.57 51.44 47.57 54.55 52.3 54.55 55.76 56.17 55.76 56.17 52.3 59.28 47.57 57.36 47.57 55.38 50.72"/><path d="M65.11,52.36h0c.16-.16.32-.33.47-.5a3.5,3.5,0,0,0,.73-1.23,2.56,2.56,0,0,0,.12-.79,2.43,2.43,0,0,0-.23-1.06,2.28,2.28,0,0,0-.58-.78,2.49,2.49,0,0,0-.85-.46,3,3,0,0,0-1.93,0,2.55,2.55,0,0,0-.79.44,2.6,2.6,0,0,0-.6.68,2.74,2.74,0,0,0-.33.86L61,50l1.59.31.09-.43a1.24,1.24,0,0,1,.38-.69,1,1,0,0,1,.7-.25,1.09,1.09,0,0,1,.4.07.94.94,0,0,1,.32.19.78.78,0,0,1,.21.29,1,1,0,0,1,.07.4,1,1,0,0,1,0,.35,1.75,1.75,0,0,1-.15.34,2.7,2.7,0,0,1-.25.34,3.18,3.18,0,0,1-.3.33l-3.12,3.16v1.39h5.55V54.22H63.23Z"/><path d="M72.5,48.84h0a2.82,2.82,0,0,0-.87-1,2.54,2.54,0,0,0-2.8,0,2.82,2.82,0,0,0-.87,1,4.72,4.72,0,0,0-.44,1.36,9.94,9.94,0,0,0,0,2.95A4.72,4.72,0,0,0,68,54.51a2.92,2.92,0,0,0,.87,1,2.6,2.6,0,0,0,2.8,0,2.82,2.82,0,0,0,.87-1,4.72,4.72,0,0,0,.44-1.36,8.93,8.93,0,0,0,.13-1.47,9,9,0,0,0-.13-1.48A4.72,4.72,0,0,0,72.5,48.84Zm-2.26,5.59a.75.75,0,0,1-.52-.18,1.69,1.69,0,0,1-.39-.59,3.54,3.54,0,0,1-.23-.92,8.14,8.14,0,0,1,0-2.13,3.73,3.73,0,0,1,.23-.93,1.62,1.62,0,0,1,.4-.6.67.67,0,0,1,.51-.18.65.65,0,0,1,.49.18,1.62,1.62,0,0,1,.4.6,4.17,4.17,0,0,1,.24.94,7.65,7.65,0,0,1,.07,1.06,7.51,7.51,0,0,1-.07,1,4.22,4.22,0,0,1-.24.93,1.69,1.69,0,0,1-.39.59A.73.73,0,0,1,70.24,54.43Z"/><path d="M77.91,52.36h0c.17-.16.33-.33.48-.5a3.43,3.43,0,0,0,.42-.58,2.7,2.7,0,0,0,.42-1.44A2.42,2.42,0,0,0,79,48.78a2.18,2.18,0,0,0-.59-.78,2.45,2.45,0,0,0-.84-.46,3,3,0,0,0-1.93,0,2.6,2.6,0,0,0-.8.44,2.63,2.63,0,0,0-.92,1.54l-.08.43,1.59.31.09-.43a1.18,1.18,0,0,1,.38-.69,1,1,0,0,1,.69-.25A1.09,1.09,0,0,1,77,49a1,1,0,0,1,.33.19.88.88,0,0,1,.2.29,1,1,0,0,1,.08.4,1.34,1.34,0,0,1,0,.35,1.33,1.33,0,0,1-.16.34,2.62,2.62,0,0,1-.24.34q-.15.18-.3.33l-3.12,3.16v1.39h5.54V54.22H76Z"/><polygon points="82.31 47.57 79.98 49.49 81.02 50.67 81.95 49.88 81.95 55.76 83.57 55.76 83.57 47.57 82.31 47.57"/></g></svg>
