<svg xmlns="http://www.w3.org/2000/svg" viewBox="0 0 157.17 15.66"><g fill="#313131"><path d="M8.69,7.31a2.89,2.89,0,0,0,.38-.4A3.59,3.59,0,0,0,9.9,4.56a4.07,4.07,0,0,0-.5-2.07A3.83,3.83,0,0,0,8.13,1.17,4.79,4.79,0,0,0,6.48.52,8.24,8.24,0,0,0,4.79.34H0v15H4.76A8.14,8.14,0,0,0,7.05,15a5.47,5.47,0,0,0,1.83-.88,4.05,4.05,0,0,0,1.22-1.45,4.1,4.1,0,0,0,.44-1.88,4,4,0,0,0-1.09-2.9A4.36,4.36,0,0,0,8.69,7.31ZM4.9,6.19H3V3.12H4.52a5.22,5.22,0,0,1,1.08.1,2,2,0,0,1,.75.3A1.24,1.24,0,0,1,6.78,4a1.36,1.36,0,0,1,.15.69,1.48,1.48,0,0,1-.15.72,1.37,1.37,0,0,1-.41.45,1.84,1.84,0,0,1-.66.27A3.72,3.72,0,0,1,4.9,6.19ZM3,8.92h2A3.55,3.55,0,0,1,7,9.41a1.48,1.48,0,0,1,.56,1.33,1.53,1.53,0,0,1-.18.78,1.64,1.64,0,0,1-.54.54,2.72,2.72,0,0,1-.92.35,5.48,5.48,0,0,1-1.24.13H3Z"/><rect x="12.39" y="0.34" width="2.97" height="14.98"/><polygon points="16.88 3.16 21.36 3.16 21.36 15.32 24.32 15.32 24.32 3.16 28.8 3.16 28.8 0.34 16.88 0.34 16.88 3.16"/><polygon points="46.11 0.34 42.31 10.51 38.51 0.34 35.31 0.34 41.02 15.32 43.56 15.32 49.29 0.34 46.11 0.34"/><path d="M52.87.34l-6.48,15h3.25L51.1,11.8h5.84l1.47,3.52h3.27L55.25.34ZM52.27,9,54,4.75,55.76,9Z"/><polygon points="66.15 0.34 63.18 0.34 63.18 15.32 72.38 15.32 72.38 12.5 66.15 12.5 66.15 0.34"/><polygon points="76.89 0.34 73.92 0.34 73.92 15.32 83.12 15.32 83.12 12.5 76.89 12.5 76.89 0.34"/><polygon points="87.5 8.95 93.98 8.95 93.98 6.14 87.5 6.14 87.5 3.16 94.43 3.16 94.43 0.34 84.53 0.34 84.53 15.32 94.66 15.32 94.66 12.5 87.5 12.5 87.5 8.95"/><polygon points="102.42 6.1 98.84 0.34 95.21 0.34 100.9 8.99 100.9 15.32 103.86 15.32 103.86 8.99 109.55 0.34 106.03 0.34 102.42 6.1"/><path d="M123.41,9.1h0c.29-.3.58-.61.86-.92a7.14,7.14,0,0,0,.78-1,5.88,5.88,0,0,0,.54-1.2,4.52,4.52,0,0,0,.22-1.44,4.46,4.46,0,0,0-.4-1.94A4.22,4.22,0,0,0,122.8.28a5.61,5.61,0,0,0-3.53,0,5.41,5.41,0,0,0-1.45.81,4.84,4.84,0,0,0-1.09,1.25,4.61,4.61,0,0,0-.6,1.57L116,4.7l2.91.58.16-.79a2.24,2.24,0,0,1,.69-1.27A1.81,1.81,0,0,1,121,2.76a2,2,0,0,1,.73.13,1.85,1.85,0,0,1,.59.35,1.71,1.71,0,0,1,.38.53,1.86,1.86,0,0,1,.14.73,2.25,2.25,0,0,1-.1.64,2.57,2.57,0,0,1-.28.63,4.53,4.53,0,0,1-.45.63c-.18.21-.36.41-.55.6l-5.71,5.77v2.55h10.15V12.5H120Z"/><path d="M136.93,2.66h0A5.32,5.32,0,0,0,135.35.77a4.67,4.67,0,0,0-5.14,0,5.32,5.32,0,0,0-1.58,1.89,8.27,8.27,0,0,0-.8,2.49,17.26,17.26,0,0,0-.22,2.7,17.13,17.13,0,0,0,.22,2.69,8.3,8.3,0,0,0,.8,2.48,5.21,5.21,0,0,0,1.59,1.88,4.69,4.69,0,0,0,5.12,0A5.21,5.21,0,0,0,136.93,13a8.5,8.5,0,0,0,.81-2.48A16,16,0,0,0,138,7.85a16.33,16.33,0,0,0-.22-2.71A8.5,8.5,0,0,0,136.93,2.66Zm-4.14,10.22a1.33,1.33,0,0,1-.94-.33,2.88,2.88,0,0,1-.72-1.09,6.66,6.66,0,0,1-.42-1.68,14.12,14.12,0,0,1-.13-1.93,14.41,14.41,0,0,1,.13-1.95,6.94,6.94,0,0,1,.42-1.7,3.07,3.07,0,0,1,.73-1.11,1.26,1.26,0,0,1,.93-.33,1.23,1.23,0,0,1,.91.33,3.07,3.07,0,0,1,.73,1.11,7,7,0,0,1,.43,1.71A14.41,14.41,0,0,1,135,7.85a14.38,14.38,0,0,1-.14,1.93,6.77,6.77,0,0,1-.43,1.68,2.79,2.79,0,0,1-.73,1.09A1.27,1.27,0,0,1,132.79,12.88Z"/><path d="M146.83,9.1h0c.3-.3.59-.61.86-.92a6.49,6.49,0,0,0,.78-1,5.92,5.92,0,0,0,.55-1.2,4.82,4.82,0,0,0,.22-1.44,4.46,4.46,0,0,0-.41-1.94,4.1,4.1,0,0,0-1.07-1.42,4.29,4.29,0,0,0-1.54-.85,5.64,5.64,0,0,0-3.54,0,5.41,5.41,0,0,0-1.45.81,5,5,0,0,0-1.08,1.25,4.63,4.63,0,0,0-.61,1.57l-.15.78,2.91.58.16-.79a2.25,2.25,0,0,1,.7-1.27,1.8,1.8,0,0,1,1.27-.46,2,2,0,0,1,.73.13,1.74,1.74,0,0,1,.59.35,1.56,1.56,0,0,1,.38.53,1.86,1.86,0,0,1,.14.73,2,2,0,0,1-.1.64,2.24,2.24,0,0,1-.28.63,3.76,3.76,0,0,1-.44.63c-.18.21-.36.41-.55.6l-5.71,5.77v2.55h10.14V12.5H143.4Z"/><polygon points="154.87 0.34 150.6 3.85 152.51 6.01 154.2 4.56 154.2 15.32 157.17 15.32 157.17 0.34 154.87 0.34"/></g></svg>
