<svg xmlns="http://www.w3.org/2000/svg" width="130.754" height="33.5" viewBox="0 0 130.754 33.5"><path fill="#313131" fill-rule="evenodd" d="M924.147,975.459V943.6h-7.47l0.18,20.79h-0.135l-12.78-20.79h-8.775v31.86h7.47l-0.18-20.835h0.135l12.825,20.835h8.73Zm28.8,0v-6.57H938.141v-6.615h13.23v-6.165h-13.23v-6.03h14V943.6h-21.42v31.86h22.23Zm47.924-31.86h-8.009l-5.13,21.195H987.6L981.881,943.6h-8.01l-5.67,21.195h-0.135l-5.04-21.195h-8.28l9.045,31.86h7.65l6.3-21.555h0.135l6.3,21.555h7.6Zm25.02,3.1a14.159,14.159,0,0,0-4.93-2.925,16.5,16.5,0,0,0-5.51-.99,17.915,17.915,0,0,0-4.45.562,12.2,12.2,0,0,0-3.96,1.778,9.4,9.4,0,0,0-2.84,3.105,9.018,9.018,0,0,0-1.08,4.545,8.615,8.615,0,0,0,.7,3.667,7.989,7.989,0,0,0,1.84,2.565,10.188,10.188,0,0,0,2.61,1.733,27.382,27.382,0,0,0,3,1.17c1.05,0.33,1.98.637,2.81,0.922a10.716,10.716,0,0,1,2.07.945,4.45,4.45,0,0,1,1.28,1.148,2.563,2.563,0,0,1,.45,1.53,3.4,3.4,0,0,1-.36,1.62,2.893,2.893,0,0,1-.97,1.08,4.073,4.073,0,0,1-1.41.585,7.7,7.7,0,0,1-1.67.18,8.329,8.329,0,0,1-3.8-.968,9.25,9.25,0,0,1-3.08-2.407l-5.04,5.13a14,14,0,0,0,5.31,3.4,18.741,18.741,0,0,0,6.61,1.193,16.536,16.536,0,0,0,4.55-.63,11.641,11.641,0,0,0,3.91-1.935,9.409,9.409,0,0,0,2.72-3.308,10.335,10.335,0,0,0,1.02-4.747,7.713,7.713,0,0,0-.95-3.983,9.089,9.089,0,0,0-2.38-2.677,12.655,12.655,0,0,0-3.2-1.733c-1.17-.434-2.29-0.832-3.37-1.192-0.75-.24-1.43-0.473-2.03-0.7a8.627,8.627,0,0,1-1.55-.742,2.91,2.91,0,0,1-.99-0.945,2.46,2.46,0,0,1-.34-1.35,2.6,2.6,0,0,1,.43-1.553,3.456,3.456,0,0,1,1.06-.99,4.024,4.024,0,0,1,1.41-.517,9.308,9.308,0,0,1,1.56-.135,7.306,7.306,0,0,1,3.08.742,7,7,0,0,1,2.59,2Z" transform="translate(-895.156 -942.781)"/></svg>
