<svg xmlns="http://www.w3.org/2000/svg" width="110.124" height="41.8" viewBox="0 0 55.062 20.9"><path fill="#fff" fill-rule="evenodd" d="M854.831,20153h3.528v-16.8h6.076v-3.1h-15.68v3.1h6.076v16.8Zm11.194-5.8a9.428,9.428,0,0,0,2.212,3.3,8.881,8.881,0,0,0,3.36,2.2,11.71,11.71,0,0,0,4.242.8,11.906,11.906,0,0,0,4.284-.8,9,9,0,0,0,3.388-2.2,9.34,9.34,0,0,0,2.226-3.3,10.625,10.625,0,0,0,.8-4.2,11.13,11.13,0,0,0-.8-4.3,9.34,9.34,0,0,0-2.226-3.3,9.933,9.933,0,0,0-3.388-2,11.906,11.906,0,0,0-4.284-.8,11.71,11.71,0,0,0-4.242.8,9.788,9.788,0,0,0-3.36,2,9.428,9.428,0,0,0-2.212,3.3,11.13,11.13,0,0,0-.8,4.3A10.625,10.625,0,0,0,866.025,20147.2Zm3.528-7.1a8.5,8.5,0,0,1,1.386-2.3,7.7,7.7,0,0,1,2.142-1.5,6.336,6.336,0,0,1,2.786-.6,6.432,6.432,0,0,1,2.8.6,7.657,7.657,0,0,1,2.156,1.5,7.547,7.547,0,0,1,1.876,5.2,8.183,8.183,0,0,1-.49,2.9,6.2,6.2,0,0,1-1.4,2.3,6.452,6.452,0,0,1-2.17,1.6,8.19,8.19,0,0,1-2.772.5,8.063,8.063,0,0,1-2.758-.5,6.478,6.478,0,0,1-2.156-1.6,6.171,6.171,0,0,1-1.4-2.3,8.161,8.161,0,0,1-.49-2.9A8.566,8.566,0,0,1,869.553,20140.1Zm20.314,12.9H893.4v-8.2h2.716a14.148,14.148,0,0,0,2.968-.3,8.581,8.581,0,0,0,2.45-1,5.827,5.827,0,0,0,1.666-1.8,5.964,5.964,0,0,0,.616-2.8,5.823,5.823,0,0,0-.532-2.6,3.881,3.881,0,0,0-1.512-1.8,5.827,5.827,0,0,0-2.352-1,9.9,9.9,0,0,0-3.08-.4h-6.468v19.9Zm3.528-11.2v-5.7h2.576a8.27,8.27,0,0,1,1.582.1,5.372,5.372,0,0,1,1.372.4,2.335,2.335,0,0,1,.966.9,2.874,2.874,0,0,1,0,2.8,2.316,2.316,0,0,1-.98.9,5.619,5.619,0,0,1-1.4.5,8.867,8.867,0,0,1-1.652.1H893.4Z" transform="translate(-848.75 -20132.6)"/></svg>
