<svg xmlns="http://www.w3.org/2000/svg" width="355.31" height="41.8" viewBox="0 0 177.655 20.9"><path fill="#fff" fill-rule="evenodd" d="M866.823,20512.7a5.167,5.167,0,0,0-1.428-1.4,6.364,6.364,0,0,0-1.792-.9,6.971,6.971,0,0,0-1.988-.6,14.2,14.2,0,0,0-1.988-.2,11.823,11.823,0,0,0-4.256.8,10.074,10.074,0,0,0-3.4,2,9.544,9.544,0,0,0-2.268,3.3,11.623,11.623,0,0,0-.042,8.5,9.352,9.352,0,0,0,2.184,3.3,8.761,8.761,0,0,0,3.346,2.2,11.785,11.785,0,0,0,4.27.8,10.321,10.321,0,0,0,4.452-.9,9.115,9.115,0,0,0,3.22-2.6l-2.828-2a5.335,5.335,0,0,1-1.988,1.7,6.383,6.383,0,0,1-2.828.6,8.02,8.02,0,0,1-2.772-.5,7.555,7.555,0,0,1-2.114-1.5,7.16,7.16,0,0,1-1.358-2.3,8.957,8.957,0,0,1-.476-3,8.566,8.566,0,0,1,.49-2.9,8.328,8.328,0,0,1,1.4-2.3,7.847,7.847,0,0,1,2.17-1.5,6.429,6.429,0,0,1,2.8-.6,7.4,7.4,0,0,1,2.464.5,5.283,5.283,0,0,1,2.044,1.6Zm1.761,11.5a9.428,9.428,0,0,0,2.212,3.3,8.881,8.881,0,0,0,3.36,2.2,11.71,11.71,0,0,0,4.242.8,11.906,11.906,0,0,0,4.284-.8,9,9,0,0,0,3.388-2.2,9.34,9.34,0,0,0,2.226-3.3,10.625,10.625,0,0,0,.8-4.2,11.13,11.13,0,0,0-.8-4.3,9.34,9.34,0,0,0-2.226-3.3,9.933,9.933,0,0,0-3.388-2,11.906,11.906,0,0,0-4.284-.8,11.71,11.71,0,0,0-4.242.8,9.788,9.788,0,0,0-3.36,2,9.428,9.428,0,0,0-2.212,3.3,11.13,11.13,0,0,0-.8,4.3A10.625,10.625,0,0,0,868.584,20524.2Zm3.528-7.1a8.5,8.5,0,0,1,1.386-2.3,7.7,7.7,0,0,1,2.142-1.5,6.336,6.336,0,0,1,2.786-.6,6.432,6.432,0,0,1,2.8.6,7.657,7.657,0,0,1,2.156,1.5,7.547,7.547,0,0,1,1.876,5.2,8.183,8.183,0,0,1-.49,2.9,6.2,6.2,0,0,1-1.4,2.3,6.452,6.452,0,0,1-2.17,1.6,8.19,8.19,0,0,1-2.772.5,8.063,8.063,0,0,1-2.758-.5,6.478,6.478,0,0,1-2.156-1.6,6.171,6.171,0,0,1-1.4-2.3,8.161,8.161,0,0,1-.49-2.9A8.566,8.566,0,0,1,872.112,20517.1Zm20.314,12.9h3.36v-16h0.056l5.936,16h2.464l6.02-16h0.056v16h3.5v-19.9h-5.544l-5.1,14.1h-0.084l-5.152-14.1h-5.516v19.9Zm25.76,0h3.36v-16H921.6l5.936,16H930l6.02-16h0.056v16h3.5v-19.9h-5.544l-5.1,14.1h-0.084l-5.152-14.1h-5.516v19.9Zm41.588-19.9h-3.528v12.4a7.445,7.445,0,0,1-.224,1.8,5.339,5.339,0,0,1-.742,1.5,4.756,4.756,0,0,1-1.372,1.1,5.786,5.786,0,0,1-4.228,0,4.756,4.756,0,0,1-1.372-1.1,5.339,5.339,0,0,1-.742-1.5,7.445,7.445,0,0,1-.224-1.8v-12.4h-3.528v12.6a7.926,7.926,0,0,0,.6,3.2,7.091,7.091,0,0,0,1.68,2.5,7.548,7.548,0,0,0,2.534,1.5,8.642,8.642,0,0,0,6.328,0,6.777,6.777,0,0,0,4.2-4,7.758,7.758,0,0,0,.616-3.2v-12.6ZM964,20530h3.528v-15.3h0.056l9.408,15.3h4.48v-19.9H977.94v14.9h-0.056l-9.212-14.9H964v19.9Zm21.826,0h3.528v-19.9h-3.528v19.9Zm11.839,0h3.529v-16.8h6.07v-3.1H991.585v3.1h6.076v16.8Zm17.9,0h3.53v-8.6l7.45-11.3h-4.09l-5.04,8.4-4.98-8.4h-4.31l7.44,11.3v8.6Z" transform="translate(-848.875 -20509.6)"/></svg>
