<svg xmlns="http://www.w3.org/2000/svg" width="230.625" height="33.562" viewBox="0 0 230.625 33.562"><path fill="#313131" fill-rule="evenodd" d="M867.582,764.8a8.084,8.084,0,0,0-2.655-3.015,11.523,11.523,0,0,0-3.96-1.665,22.023,22.023,0,0,0-4.883-.517h-11.7v31.86h7.695V779.444H855.9a20.759,20.759,0,0,0,4.77-.54,12.314,12.314,0,0,0,4.05-1.71,8.5,8.5,0,0,0,2.79-3.083,9.772,9.772,0,0,0,1.035-4.7A9.95,9.95,0,0,0,867.582,764.8Zm-7.178,6.525a3.383,3.383,0,0,1-1.237,1.193,5.559,5.559,0,0,1-1.778.63,11.556,11.556,0,0,1-2.07.18h-3.24v-7.515h3.375a14.5,14.5,0,0,1,2,.135,5.209,5.209,0,0,1,1.732.54,3.135,3.135,0,0,1,1.215,1.125,3.43,3.43,0,0,1,.45,1.845A3.548,3.548,0,0,1,860.4,771.321Zm38.835,20.138-8.325-13.635a9.572,9.572,0,0,0,4.86-3.15,8.469,8.469,0,0,0,1.755-5.445,9.275,9.275,0,0,0-1.035-4.59,8.363,8.363,0,0,0-2.767-2.97,11.641,11.641,0,0,0-3.915-1.6,21.112,21.112,0,0,0-4.478-.472h-12.15v31.86H880.7V778.814h2.623l6.917,12.645h9ZM889.4,771.344a3.447,3.447,0,0,1-1.334,1.17,6.217,6.217,0,0,1-1.808.562,12.323,12.323,0,0,1-1.945.158h-3.663v-7.425h4.115a12.4,12.4,0,0,1,1.786.135,5.344,5.344,0,0,1,1.673.517,3.24,3.24,0,0,1,1.221,1.08,3.18,3.18,0,0,1,.475,1.823A3.452,3.452,0,0,1,889.4,771.344Zm45.52-2.858a15.144,15.144,0,0,0-3.622-5.242,16.108,16.108,0,0,0-5.513-3.33,21.04,21.04,0,0,0-13.837,0,16.129,16.129,0,0,0-5.49,3.33,15.119,15.119,0,0,0-3.623,5.242,17.558,17.558,0,0,0-1.305,6.908,17.764,17.764,0,0,0,1.305,6.907,15.7,15.7,0,0,0,3.623,5.355,16.155,16.155,0,0,0,5.49,3.443,20.305,20.305,0,0,0,13.837,0,16.13,16.13,0,0,0,5.513-3.443,15.731,15.731,0,0,0,3.622-5.355,17.764,17.764,0,0,0,1.305-6.907A17.558,17.558,0,0,0,934.924,768.486Zm-7.605,10.89a9.237,9.237,0,0,1-1.89,3.128,8.769,8.769,0,0,1-2.88,2.047,9.534,9.534,0,0,1-7.38,0,8.514,8.514,0,0,1-2.857-2.047,9.419,9.419,0,0,1-1.868-3.128,11.38,11.38,0,0,1-.675-3.982,11.247,11.247,0,0,1,.653-3.87,8.745,8.745,0,0,1,1.867-3.083,8.853,8.853,0,0,1,6.57-2.767,9.12,9.12,0,0,1,3.713.742,8.631,8.631,0,0,1,2.88,2.025,9.239,9.239,0,0,1,1.867,3.083,10.932,10.932,0,0,1,.675,3.87A11.38,11.38,0,0,1,927.319,779.376Zm42.3,10.148V772.649h-13.14v6.21h6.075v5.8a9.564,9.564,0,0,1-2.25.652,15.594,15.594,0,0,1-2.565.2,10.955,10.955,0,0,1-4.162-.743,8.49,8.49,0,0,1-3.06-2.07,8.692,8.692,0,0,1-1.868-3.172,12.464,12.464,0,0,1-.63-4.05,11.034,11.034,0,0,1,.7-3.983,9.378,9.378,0,0,1,1.957-3.15,9,9,0,0,1,2.97-2.07,9.276,9.276,0,0,1,3.735-.742,10.07,10.07,0,0,1,4.185.832,8.426,8.426,0,0,1,2.97,2.138l4.86-5.535a14.511,14.511,0,0,0-5.265-3.083,20.884,20.884,0,0,0-7.02-1.147,19.362,19.362,0,0,0-6.8,1.17,16.242,16.242,0,0,0-5.49,3.352,15.413,15.413,0,0,0-3.667,5.288,18.72,18.72,0,0,0-.023,13.792,15.583,15.583,0,0,0,3.623,5.288,16.232,16.232,0,0,0,5.535,3.42,19.776,19.776,0,0,0,7.042,1.215,28.725,28.725,0,0,0,6.818-.765,24.5,24.5,0,0,0,5.467-1.98h0Zm32.351,1.935-8.321-13.635a9.572,9.572,0,0,0,4.86-3.15,8.466,8.466,0,0,0,1.751-5.445,9.276,9.276,0,0,0-1.031-4.59,8.366,8.366,0,0,0-2.768-2.97,11.641,11.641,0,0,0-3.915-1.6,21.1,21.1,0,0,0-4.477-.472h-12.15v31.86h7.515V778.814h2.623l6.917,12.645h9Zm-9.831-20.115a3.447,3.447,0,0,1-1.334,1.17,6.224,6.224,0,0,1-1.809.562,12.311,12.311,0,0,1-1.944.158h-3.663v-7.425H987.5a12.4,12.4,0,0,1,1.786.135,5.352,5.352,0,0,1,1.673.517,3.255,3.255,0,0,1,1.221,1.08,3.187,3.187,0,0,1,.475,1.823A3.459,3.459,0,0,1,992.139,771.344Zm43.761,20.115-13.23-31.86h-7.47l-13.36,31.86h8.37l2.34-6.255h12.33l2.47,6.255h8.55Zm-13.14-12.42h-8.01l4.05-10.935Zm52.25,12.42V759.6h-11.13l-6.94,20.43h-0.18l-7.25-20.43h-10.95v31.86h7.24l-0.18-22.545h0.14l8.05,22.545h5.4l8.28-22.545h0.14l-0.18,22.545h7.56Z" transform="translate(-844.375 -758.75)"/></svg>
