<svg xmlns="http://www.w3.org/2000/svg" width="194.812" height="41.8" viewBox="0 0 97.406 20.9"><path fill="#fff" fill-rule="evenodd" d="M848.419,20228h3.948l1.792-4.6h8.6l1.848,4.6h4.032l-8.54-19.9h-3.052Zm6.944-7.6,3.108-8.1,3.052,8.1h-6.16Zm15.341,7.6h7.14a12.754,12.754,0,0,0,2.758-.3,6.435,6.435,0,0,0,2.408-1,4.41,4.41,0,0,0,1.694-1.8,5.1,5.1,0,0,0,.644-2.7,4.372,4.372,0,0,0-1.2-3.2,5.455,5.455,0,0,0-3.08-1.5h0a5.435,5.435,0,0,0,2.492-1.6,4.129,4.129,0,0,0,.952-2.8,4.294,4.294,0,0,0-1.918-3.8,6.226,6.226,0,0,0-1.946-.9,8.317,8.317,0,0,0-2.212-.3H870.7v19.9Zm3.528-16.9h2.828a5.85,5.85,0,0,1,2.968.5,2.047,2.047,0,0,1,.952,1.9,2.359,2.359,0,0,1-.924,2,4.183,4.183,0,0,1-2.688.7h-3.136v-5.1Zm0,8.1h3.3a6.75,6.75,0,0,1,3.22.6,2.482,2.482,0,0,1,1.064,2.2,2.607,2.607,0,0,1-.434,1.6,2.733,2.733,0,0,1-1.092.9,6.314,6.314,0,0,1-1.442.4,7.508,7.508,0,0,1-1.456.1h-3.164v-5.8Zm14.159,3a9.428,9.428,0,0,0,2.212,3.3,8.881,8.881,0,0,0,3.36,2.2,11.71,11.71,0,0,0,4.242.8,11.906,11.906,0,0,0,4.284-.8,9,9,0,0,0,3.388-2.2,9.34,9.34,0,0,0,2.226-3.3,10.625,10.625,0,0,0,.8-4.2,11.13,11.13,0,0,0-.8-4.3,9.34,9.34,0,0,0-2.226-3.3,9.933,9.933,0,0,0-3.388-2,11.906,11.906,0,0,0-4.284-.8,11.71,11.71,0,0,0-4.242.8,9.788,9.788,0,0,0-3.36,2,9.428,9.428,0,0,0-2.212,3.3,11.13,11.13,0,0,0-.8,4.3A10.625,10.625,0,0,0,888.391,20222.2Zm3.528-7.1a8.5,8.5,0,0,1,1.386-2.3,7.7,7.7,0,0,1,2.142-1.5,6.336,6.336,0,0,1,2.786-.6,6.432,6.432,0,0,1,2.8.6,7.657,7.657,0,0,1,2.156,1.5,7.547,7.547,0,0,1,1.876,5.2,8.183,8.183,0,0,1-.49,2.9,6.2,6.2,0,0,1-1.4,2.3,6.452,6.452,0,0,1-2.17,1.6,8.19,8.19,0,0,1-2.772.5,8.063,8.063,0,0,1-2.758-.5,6.478,6.478,0,0,1-2.156-1.6,6.171,6.171,0,0,1-1.4-2.3,8.161,8.161,0,0,1-.49-2.9A8.566,8.566,0,0,1,891.919,20215.1Zm36.07-7h-3.528v12.4a7.445,7.445,0,0,1-.224,1.8,5.366,5.366,0,0,1-.742,1.5,4.769,4.769,0,0,1-1.372,1.1,5.786,5.786,0,0,1-4.228,0,4.742,4.742,0,0,1-1.372-1.1,5.312,5.312,0,0,1-.742-1.5,7.4,7.4,0,0,1-.224-1.8v-12.4h-3.528v12.6a7.909,7.909,0,0,0,.6,3.2,7.091,7.091,0,0,0,1.68,2.5,7.539,7.539,0,0,0,2.534,1.5,8.642,8.642,0,0,0,6.328,0,6.777,6.777,0,0,0,4.2-4,7.774,7.774,0,0,0,.616-3.2v-12.6Zm8.214,19.9h3.528v-16.8h6.076v-3.1h-15.68v3.1H936.2v16.8Z" transform="translate(-848.406 -20207.6)"/></svg>
