<svg xmlns="http://www.w3.org/2000/svg" width="203.469" height="33.5" viewBox="0 0 203.469 33.5"><path fill="#313131" fill-rule="evenodd" d="M882.365,854.7a14.2,14.2,0,0,0-4.928-2.925,16.537,16.537,0,0,0-5.512-.99,17.943,17.943,0,0,0-4.455.562,12.191,12.191,0,0,0-3.96,1.778,9.388,9.388,0,0,0-2.835,3.105,9.018,9.018,0,0,0-1.08,4.545,8.693,8.693,0,0,0,.7,3.667,8,8,0,0,0,1.845,2.565,10.018,10.018,0,0,0,2.61,1.733,26.81,26.81,0,0,0,2.993,1.17q1.573,0.5,2.812.922a10.443,10.443,0,0,1,2.07.945,4.412,4.412,0,0,1,1.283,1.148,2.57,2.57,0,0,1,.45,1.53,3.411,3.411,0,0,1-.36,1.62,2.939,2.939,0,0,1-.968,1.08,4.151,4.151,0,0,1-1.417.585,7.659,7.659,0,0,1-1.665.18,8.356,8.356,0,0,1-3.8-.968,9.3,9.3,0,0,1-3.082-2.407l-5.04,5.13a13.987,13.987,0,0,0,5.31,3.4,18.76,18.76,0,0,0,6.615,1.193,16.511,16.511,0,0,0,4.545-.63,11.685,11.685,0,0,0,3.915-1.935,9.479,9.479,0,0,0,2.722-3.308,10.4,10.4,0,0,0,1.013-4.747,7.713,7.713,0,0,0-.945-3.983,9.119,9.119,0,0,0-2.385-2.677,12.641,12.641,0,0,0-3.195-1.733q-1.755-.651-3.375-1.192-1.126-.36-2.025-0.7a8.8,8.8,0,0,1-1.553-.742,3,3,0,0,1-.99-0.945,2.5,2.5,0,0,1-.337-1.35,2.637,2.637,0,0,1,.427-1.553,3.5,3.5,0,0,1,1.058-.99,4.017,4.017,0,0,1,1.417-.517,9.173,9.173,0,0,1,1.553-.135,7.3,7.3,0,0,1,3.082.742,6.957,6.957,0,0,1,2.588,2Zm28.057,2.092a8.084,8.084,0,0,0-2.655-3.015,11.523,11.523,0,0,0-3.96-1.665,22.029,22.029,0,0,0-4.883-.517h-11.7v31.86h7.695V871.444h3.825a20.759,20.759,0,0,0,4.77-.54,12.314,12.314,0,0,0,4.05-1.71,8.5,8.5,0,0,0,2.79-3.083,9.772,9.772,0,0,0,1.035-4.7A9.963,9.963,0,0,0,910.422,856.8Zm-7.178,6.525a3.383,3.383,0,0,1-1.237,1.193,5.568,5.568,0,0,1-1.778.63,11.556,11.556,0,0,1-2.07.18h-3.24v-7.515h3.375a14.5,14.5,0,0,1,2,.135,5.217,5.217,0,0,1,1.732.54,3.135,3.135,0,0,1,1.215,1.125,3.43,3.43,0,0,1,.45,1.845A3.548,3.548,0,0,1,903.244,863.321Zm35.01,20.138v-6.57H923.449v-6.615h13.23v-6.165h-13.23v-6.03h14V851.6h-21.42v31.86h22.23Zm35.235,0-13.23-31.86h-7.47l-13.365,31.86h8.37l2.34-6.255h12.33l2.475,6.255h8.55Zm-13.14-12.42h-8.01l4.05-10.935Zm45.271,12.42-14.537-17.19,13.727-14.67h-9.632l-11.385,12.96h-0.135V851.6h-7.515v31.86h7.515v-14.67h0.09l11.835,14.67h10.037Zm24.75,0v-6.57h-14.81v-6.615h13.23v-6.165h-13.23v-6.03h14V851.6h-21.42v31.86h22.23Zm31.14,0-8.33-13.635a9.572,9.572,0,0,0,4.86-3.15,8.472,8.472,0,0,0,1.76-5.445,9.275,9.275,0,0,0-1.04-4.59,8.38,8.38,0,0,0-2.76-2.97,11.667,11.667,0,0,0-3.92-1.6,21.158,21.158,0,0,0-4.48-.472h-12.15v31.86h7.52V870.814h2.62l6.92,12.645h9Zm-9.84-20.115a3.408,3.408,0,0,1-1.33,1.17,6.231,6.231,0,0,1-1.81.562,12.252,12.252,0,0,1-1.94.158h-3.67v-7.425h4.12a12.261,12.261,0,0,1,1.78.135,5.4,5.4,0,0,1,1.68.517,3.329,3.329,0,0,1,1.22,1.08,3.234,3.234,0,0,1,.47,1.823A3.429,3.429,0,0,1,1051.67,863.344Z" transform="translate(-858.031 -850.781)"/></svg>
