<svg xmlns="http://www.w3.org/2000/svg" width="158.626" height="41.8" viewBox="0 0 79.313 20.9"><path fill="#fff" fill-rule="evenodd" d="M848.827,20455h3.528v-15.3h0.056l9.408,15.3h4.48v-19.9h-3.528v14.9h-0.056l-9.212-14.9h-4.676v19.9Zm21.826,0h13.636v-3.2H874.181v-5.6h9.1v-2.9h-9.1v-5.1h9.6v-3.1H870.653v19.9Zm20.954,0h3.416l4.648-14.9h0.056l4.648,14.9h3.416l5.8-19.9h-3.752l-3.92,14.6h-0.056l-4.284-14.6h-3.64l-4.368,14.6h-0.056l-3.836-14.6h-3.864ZM928,20436.8a6.906,6.906,0,0,0-2.7-1.6,8.47,8.47,0,0,0-3.066-.6,11.859,11.859,0,0,0-2.646.4,6.34,6.34,0,0,0-2.324,1.1,4.381,4.381,0,0,0-1.652,1.8,5.058,5.058,0,0,0-.63,2.6,5.253,5.253,0,0,0,.448,2.3,5.045,5.045,0,0,0,1.162,1.6,5.167,5.167,0,0,0,1.61,1,13.26,13.26,0,0,0,1.792.7q0.924,0.3,1.764.6a14.509,14.509,0,0,1,1.456.6,5.189,5.189,0,0,1,.98.9,2.376,2.376,0,0,1,.364,1.3,2.737,2.737,0,0,1-.322,1.4,2.223,2.223,0,0,1-.84.9,4.287,4.287,0,0,1-1.162.5,5.671,5.671,0,0,1-1.26.2,5.391,5.391,0,0,1-2.394-.6,4.9,4.9,0,0,1-1.946-1.6l-2.52,2.3a7.1,7.1,0,0,0,3.024,2.2,10.227,10.227,0,0,0,6.552.3,8.007,8.007,0,0,0,2.3-1.2,5.584,5.584,0,0,0,1.568-2,6.193,6.193,0,0,0,.588-2.8,5.126,5.126,0,0,0-.546-2.4,5.322,5.322,0,0,0-1.4-1.6,11.055,11.055,0,0,0-1.876-1.1,13.359,13.359,0,0,1-1.974-.7,7.075,7.075,0,0,1-1.54-.5,3.81,3.81,0,0,1-1.19-.5,2.76,2.76,0,0,1-.77-0.9,2.122,2.122,0,0,1-.28-1.1,2.611,2.611,0,0,1,.322-1.3,2.854,2.854,0,0,1,.826-0.8,4.136,4.136,0,0,1,1.12-.5,5.128,5.128,0,0,1,1.232-.1,5.032,5.032,0,0,1,3.64,1.7Z" transform="translate(-848.812 -20434.6)"/></svg>
