<svg xmlns="http://www.w3.org/2000/svg" width="278" height="41.8" viewBox="0 0 139 20.9"><path fill="#fff" fill-rule="evenodd" d="M848.827,20303h3.528v-8.2h2.716a14.148,14.148,0,0,0,2.968-.3,8.581,8.581,0,0,0,2.45-1,5.827,5.827,0,0,0,1.666-1.8,5.964,5.964,0,0,0,.616-2.8,5.823,5.823,0,0,0-.532-2.6,3.881,3.881,0,0,0-1.512-1.8,5.827,5.827,0,0,0-2.352-1,9.9,9.9,0,0,0-3.08-.4h-6.468v19.9Zm3.528-11.2v-5.7h2.576a8.27,8.27,0,0,1,1.582.1,5.372,5.372,0,0,1,1.372.4,2.335,2.335,0,0,1,.966.9,2.874,2.874,0,0,1,0,2.8,2.316,2.316,0,0,1-.98.9,5.619,5.619,0,0,1-1.4.5,8.867,8.867,0,0,1-1.652.1h-2.464Zm13.059,11.2h3.528v-8.4h2.576l4.592,8.4h4.256l-5.292-8.8a6.141,6.141,0,0,0,3.318-1.9,4.917,4.917,0,0,0,1.218-3.5,5.156,5.156,0,0,0-.616-2.6,4.984,4.984,0,0,0-1.639-1.8,8.3,8.3,0,0,0-2.337-1,12.188,12.188,0,0,0-2.716-.3h-6.888v19.9Zm3.528-11.3v-5.6h3.191a6.612,6.612,0,0,1,1.387.1,4.717,4.717,0,0,1,1.273.4,2.4,2.4,0,0,1,.924.9,2.154,2.154,0,0,1,.365,1.3,2.683,2.683,0,0,1-.393,1.5,3.581,3.581,0,0,1-.994.9,5.364,5.364,0,0,1-1.357.4c-0.5,0-1.008.1-1.512,0.1h-2.884Zm13.635,5.5a9.442,9.442,0,0,0,2.212,3.3,8.9,8.9,0,0,0,3.36,2.2,11.719,11.719,0,0,0,4.242.8,11.9,11.9,0,0,0,4.284-.8,8.993,8.993,0,0,0,3.388-2.2,9.34,9.34,0,0,0,2.226-3.3,10.625,10.625,0,0,0,.8-4.2,11.13,11.13,0,0,0-.8-4.3,9.34,9.34,0,0,0-2.226-3.3,9.924,9.924,0,0,0-3.388-2,11.9,11.9,0,0,0-4.284-.8,11.719,11.719,0,0,0-4.242.8,9.807,9.807,0,0,0-3.36,2,9.442,9.442,0,0,0-2.212,3.3,11.13,11.13,0,0,0-.8,4.3A10.625,10.625,0,0,0,882.577,20297.2Zm3.528-7.1a8.549,8.549,0,0,1,1.386-2.3,7.729,7.729,0,0,1,2.142-1.5,6.342,6.342,0,0,1,2.786-.6,6.429,6.429,0,0,1,2.8.6,7.642,7.642,0,0,1,2.156,1.5,7.547,7.547,0,0,1,1.876,5.2,8.161,8.161,0,0,1-.49,2.9,6.171,6.171,0,0,1-1.4,2.3,6.442,6.442,0,0,1-2.17,1.6,8.19,8.19,0,0,1-2.772.5,8.068,8.068,0,0,1-2.758-.5,6.5,6.5,0,0,1-2.156-1.6,6.2,6.2,0,0,1-1.4-2.3,8.183,8.183,0,0,1-.49-2.9A8.59,8.59,0,0,1,886.105,20290.1Zm37.61,1.6h-7.588v2.9H920.3v5a9.633,9.633,0,0,1-3.948.7,8.98,8.98,0,0,1-2.954-.5,6.337,6.337,0,0,1-2.212-1.6,6.171,6.171,0,0,1-1.4-2.3,8.161,8.161,0,0,1-.49-2.9,7.547,7.547,0,0,1,1.876-5.2,7.574,7.574,0,0,1,2.17-1.5,6.585,6.585,0,0,1,2.842-.6,7.229,7.229,0,0,1,2.954.6,5.721,5.721,0,0,1,2.114,1.5l2.436-2.7a10.445,10.445,0,0,0-3.178-1.8,14.872,14.872,0,0,0-4.354-.7,11.823,11.823,0,0,0-4.256.8,10.074,10.074,0,0,0-3.4,2,9.544,9.544,0,0,0-2.268,3.3,10.793,10.793,0,0,0-.826,4.3,10.625,10.625,0,0,0,.8,4.2,9.34,9.34,0,0,0,2.226,3.3,8.951,8.951,0,0,0,3.416,2.2,12.363,12.363,0,0,0,4.4.8,24.813,24.813,0,0,0,4.158-.4,16.328,16.328,0,0,0,3.318-1.2v-10.2Zm4.222,11.3h3.528v-8.4h2.576l4.592,8.4h4.256l-5.292-8.8a6.137,6.137,0,0,0,3.318-1.9,4.913,4.913,0,0,0,1.218-3.5,5.146,5.146,0,0,0-.616-2.6,4.991,4.991,0,0,0-1.638-1.8,8.3,8.3,0,0,0-2.338-1,12.182,12.182,0,0,0-2.716-.3h-6.888v19.9Zm3.528-11.3v-5.6h3.192a6.6,6.6,0,0,1,1.386.1,4.724,4.724,0,0,1,1.274.4,2.412,2.412,0,0,1,.924.9,2.154,2.154,0,0,1,.364,1.3,2.691,2.691,0,0,1-.392,1.5,3.6,3.6,0,0,1-.994.9,5.359,5.359,0,0,1-1.358.4c-0.5,0-1.008.1-1.512,0.1h-2.884Zm12.665,11.3h3.948l1.792-4.6h8.6l1.848,4.6h4.032l-8.54-19.9h-3.052Zm6.944-7.6,3.108-8.1,3.052,8.1h-6.16Zm15.341,7.6h3.36v-16h0.056l5.936,16h2.464l6.02-16h0.056v16h3.5v-19.9h-5.544l-5.1,14.1h-0.084l-5.152-14.1h-5.516v19.9Z" transform="translate(-848.812 -20282.6)"/></svg>
