<svg xmlns="http://www.w3.org/2000/svg" width="245.812" height="41.8" viewBox="0 0 122.906 20.9"><path fill="#fff" fill-rule="evenodd" d="M862.231,20360.8a6.913,6.913,0,0,0-2.7-1.6,8.47,8.47,0,0,0-3.066-.6,11.859,11.859,0,0,0-2.646.4,6.34,6.34,0,0,0-2.324,1.1,4.374,4.374,0,0,0-1.652,1.8,5.058,5.058,0,0,0-.63,2.6,5.253,5.253,0,0,0,.448,2.3,5.03,5.03,0,0,0,1.162,1.6,5.155,5.155,0,0,0,1.61,1,13.209,13.209,0,0,0,1.792.7q0.924,0.3,1.764.6a14.509,14.509,0,0,1,1.456.6,5.221,5.221,0,0,1,.98.9,2.385,2.385,0,0,1,.364,1.3,2.747,2.747,0,0,1-.322,1.4,2.223,2.223,0,0,1-.84.9,4.3,4.3,0,0,1-1.162.5,5.689,5.689,0,0,1-1.26.2,5.391,5.391,0,0,1-2.394-.6,4.9,4.9,0,0,1-1.946-1.6l-2.52,2.3a7.1,7.1,0,0,0,3.024,2.2,12.284,12.284,0,0,0,3.78.7,12.423,12.423,0,0,0,2.772-.4,8.02,8.02,0,0,0,2.3-1.2,5.584,5.584,0,0,0,1.568-2,6.193,6.193,0,0,0,.588-2.8,5.126,5.126,0,0,0-.546-2.4,5.322,5.322,0,0,0-1.4-1.6,11.094,11.094,0,0,0-1.876-1.1,13.278,13.278,0,0,1-1.974-.7,7.057,7.057,0,0,1-1.54-.5,3.8,3.8,0,0,1-1.19-.5,2.748,2.748,0,0,1-.77-0.9,2.122,2.122,0,0,1-.28-1.1,2.611,2.611,0,0,1,.322-1.3,2.842,2.842,0,0,1,.826-0.8,4.136,4.136,0,0,1,1.12-.5,5.124,5.124,0,0,1,1.232-.1,5.032,5.032,0,0,1,3.64,1.7Zm3.511,18.2h3.528v-8.2h2.716a14.148,14.148,0,0,0,2.968-.3,8.581,8.581,0,0,0,2.45-1,5.827,5.827,0,0,0,1.666-1.8,5.964,5.964,0,0,0,.616-2.8,5.823,5.823,0,0,0-.532-2.6,3.881,3.881,0,0,0-1.512-1.8,5.827,5.827,0,0,0-2.352-1,9.9,9.9,0,0,0-3.08-.4h-6.468v19.9Zm3.528-11.2v-5.7h2.576a8.27,8.27,0,0,1,1.582.1,5.372,5.372,0,0,1,1.372.4,2.335,2.335,0,0,1,.966.9,2.874,2.874,0,0,1,0,2.8,2.316,2.316,0,0,1-.98.9,5.619,5.619,0,0,1-1.4.5,8.867,8.867,0,0,1-1.652.1H869.27Zm13.058,11.2h13.636v-3.2H885.856v-5.6h9.1v-2.9h-9.1v-5.1h9.6v-3.1H882.328v19.9Zm15.243,0h3.948l1.792-4.6h8.6l1.848,4.6h4.032l-8.54-19.9H906.2Zm6.944-7.6,3.108-8.1,3.052,8.1h-6.16Zm15.341,7.6h3.528v-10h0.084l8.708,10h4.956l-9.884-10.7,9.268-9.2h-4.76l-8.288,8.6h-0.084v-8.6h-3.528v19.9Zm19.373,0h13.636v-3.2H942.757v-5.6h9.1v-2.9h-9.1v-5.1h9.6v-3.1H939.229v19.9Zm17.074,0h3.528v-8.4h2.576L967,20379h4.256l-5.292-8.8a6.137,6.137,0,0,0,3.318-1.9,4.913,4.913,0,0,0,1.218-3.5,5.146,5.146,0,0,0-.616-2.6,4.991,4.991,0,0,0-1.638-1.8,8.3,8.3,0,0,0-2.338-1,12.182,12.182,0,0,0-2.716-.3H956.3v19.9Zm3.528-11.3v-5.6h3.192a6.6,6.6,0,0,1,1.386.1,4.724,4.724,0,0,1,1.274.4,2.412,2.412,0,0,1,.924.9,2.154,2.154,0,0,1,.364,1.3,2.691,2.691,0,0,1-.392,1.5,3.6,3.6,0,0,1-.994.9,5.359,5.359,0,0,1-1.358.4c-0.5,0-1.008.1-1.512,0.1h-2.884Z" transform="translate(-848.344 -20358.6)"/></svg>
