<svg xmlns="http://www.w3.org/2000/svg" width="160.776" height="33.562" viewBox="0 0 160.776 33.562"><path fill="#313131" fill-rule="evenodd" d="M913.919,698.459l-13.23-31.86h-7.47l-13.365,31.86h8.37l2.34-6.255h12.33l2.475,6.255h8.55Zm-13.14-12.42h-8.01l4.05-10.935Zm40.117,0.315a7.26,7.26,0,0,0-1.395-2.205,7.351,7.351,0,0,0-2.07-1.553,8.722,8.722,0,0,0-2.542-.832v-0.09a8.044,8.044,0,0,0,3.78-2.5,6.635,6.635,0,0,0,1.44-4.387,7.018,7.018,0,0,0-3.555-6.5,11.219,11.219,0,0,0-3.51-1.3,19.561,19.561,0,0,0-3.78-.382h-12.69v31.86h12.69a21.1,21.1,0,0,0,4.477-.473,11.973,11.973,0,0,0,3.893-1.552,8.225,8.225,0,0,0,2.745-2.858,8.6,8.6,0,0,0,1.035-4.387A7.4,7.4,0,0,0,940.9,686.354Zm-9.4-7.943a5.569,5.569,0,0,1-3.352.878H924v-6.57h3.78a7.248,7.248,0,0,1,3.667.742,2.552,2.552,0,0,1,1.238,2.363A3.009,3.009,0,0,1,931.491,678.411Zm1.733,11.97a3.382,3.382,0,0,1-1.283,1.148,5.875,5.875,0,0,1-1.755.562,11.515,11.515,0,0,1-1.867.158H924v-7.29h4.275a8.694,8.694,0,0,1,3.96.765,2.813,2.813,0,0,1,1.485,2.745A3.39,3.39,0,0,1,933.224,690.381ZM978.4,675.486a15.13,15.13,0,0,0-3.622-5.242,16.108,16.108,0,0,0-5.513-3.33,21.04,21.04,0,0,0-13.837,0,16.139,16.139,0,0,0-5.49,3.33,15.119,15.119,0,0,0-3.623,5.242,17.558,17.558,0,0,0-1.3,6.908,17.764,17.764,0,0,0,1.3,6.907,15.7,15.7,0,0,0,3.623,5.355,16.164,16.164,0,0,0,5.49,3.443,20.305,20.305,0,0,0,13.837,0,16.13,16.13,0,0,0,5.513-3.443A15.717,15.717,0,0,0,978.4,689.3a17.764,17.764,0,0,0,1.3-6.907A17.558,17.558,0,0,0,978.4,675.486Zm-7.605,10.89a9.237,9.237,0,0,1-1.89,3.128,8.769,8.769,0,0,1-2.88,2.047,9.534,9.534,0,0,1-7.38,0,8.514,8.514,0,0,1-2.857-2.047,9.436,9.436,0,0,1-1.868-3.128,11.939,11.939,0,0,1-.022-7.852,8.745,8.745,0,0,1,1.867-3.083,8.853,8.853,0,0,1,6.57-2.767,9.12,9.12,0,0,1,3.713.742,8.621,8.621,0,0,1,2.88,2.025,9.239,9.239,0,0,1,1.867,3.083,10.932,10.932,0,0,1,.675,3.87A11.38,11.38,0,0,1,970.8,686.376Zm40.992,0.068V666.6h-7.69v19.215a9.483,9.483,0,0,1-.32,2.475,5.8,5.8,0,0,1-1.03,2.092,5.02,5.02,0,0,1-1.87,1.463,7.359,7.359,0,0,1-5.534,0,4.855,4.855,0,0,1-1.845-1.463,6.323,6.323,0,0,1-1.035-2.092,8.888,8.888,0,0,1-.338-2.475V666.6h-7.65v19.845a14,14,0,0,0,.945,5.242,11.429,11.429,0,0,0,2.7,4.05,12.318,12.318,0,0,0,4.275,2.633,17.429,17.429,0,0,0,11.322,0,12.8,12.8,0,0,0,4.34-2.633,11.466,11.466,0,0,0,2.77-4.05,13.8,13.8,0,0,0,.96-5.242h0Zm28.85-13.275V666.6h-25.7v6.57h9v25.29h7.7v-25.29h9Z" transform="translate(-879.844 -665.75)"/></svg>
