<svg xmlns="http://www.w3.org/2000/svg" width="293.969" height="33.56" viewBox="0 0 293.969 33.56"><path fill="#313131" fill-rule="evenodd" d="M843.553,1063.05l-5.355-5.04a7.783,7.783,0,0,1-2.745,2.34,8.484,8.484,0,0,1-4,.9,9.079,9.079,0,0,1-3.645-.72,8.465,8.465,0,0,1-2.858-2,9.305,9.305,0,0,1-1.867-3.09,11.2,11.2,0,0,1-.675-3.96,10.885,10.885,0,0,1,.675-3.89,9.367,9.367,0,0,1,1.89-3.08,8.785,8.785,0,0,1,2.9-2.05,9.2,9.2,0,0,1,3.713-.74,9.406,9.406,0,0,1,3.6.72,6.45,6.45,0,0,1,2.835,2.2l5.22-5.22a12.652,12.652,0,0,0-5.288-3.48,19.089,19.089,0,0,0-6.637-1.2,19.358,19.358,0,0,0-6.795,1.17,16.163,16.163,0,0,0-5.49,3.36,15.326,15.326,0,0,0-3.668,5.28,18.669,18.669,0,0,0-.022,13.77,15.71,15.71,0,0,0,9.022,8.78,18.666,18.666,0,0,0,6.818,1.21,17.141,17.141,0,0,0,7.155-1.41,15.244,15.244,0,0,0,5.22-3.85h0Zm35.189-18.56a15.107,15.107,0,0,0-3.622-5.25,16.1,16.1,0,0,0-5.513-3.33,21.04,21.04,0,0,0-13.837,0,16.139,16.139,0,0,0-5.49,3.33,15.109,15.109,0,0,0-3.623,5.25,17.5,17.5,0,0,0-1.305,6.9,17.762,17.762,0,0,0,1.305,6.91,15.75,15.75,0,0,0,3.623,5.36,16.234,16.234,0,0,0,5.49,3.44,20.384,20.384,0,0,0,13.837,0,16.19,16.19,0,0,0,5.513-3.44,15.747,15.747,0,0,0,3.622-5.36,17.762,17.762,0,0,0,1.305-6.91A17.5,17.5,0,0,0,878.742,1044.49Zm-7.605,10.89a9.25,9.25,0,0,1-1.89,3.12,8.705,8.705,0,0,1-2.88,2.05,9.57,9.57,0,0,1-7.38,0,8.463,8.463,0,0,1-2.857-2.05,9.449,9.449,0,0,1-1.868-3.12,11.445,11.445,0,0,1-.675-3.99,11.271,11.271,0,0,1,.653-3.87,8.791,8.791,0,0,1,1.867-3.08,8.92,8.92,0,0,1,6.57-2.77,9.041,9.041,0,0,1,3.713.75,8.608,8.608,0,0,1,2.88,2.02,9.259,9.259,0,0,1,1.867,3.08,10.932,10.932,0,0,1,.675,3.87A11.445,11.445,0,0,1,871.137,1055.38Zm50.445,12.08V1035.6H910.453l-6.938,20.43h-0.18l-7.254-20.43H885.132v31.86h7.245l-0.18-22.55h0.135l8.055,22.55h5.4l8.28-22.55H914.2l-0.18,22.55h7.56Zm42.975,0V1035.6H953.428l-6.939,20.43h-0.18l-7.254-20.43H928.107v31.86h7.245l-0.18-22.55h0.135l8.055,22.55h5.4l8.28-22.55h0.135L957,1067.46h7.56Zm33.524-12.02V1035.6h-7.7v19.21a9.521,9.521,0,0,1-.315,2.48,5.771,5.771,0,0,1-1.035,2.09,4.992,4.992,0,0,1-1.867,1.46,7.362,7.362,0,0,1-5.535,0,4.794,4.794,0,0,1-1.845-1.46,6.275,6.275,0,0,1-1.035-2.09,8.924,8.924,0,0,1-.338-2.48V1035.6h-7.65v19.84a14.057,14.057,0,0,0,.945,5.25,11.519,11.519,0,0,0,2.7,4.05,12.387,12.387,0,0,0,4.275,2.63,17.5,17.5,0,0,0,11.318,0,12.844,12.844,0,0,0,4.342-2.63,11.5,11.5,0,0,0,2.768-4.05,13.787,13.787,0,0,0,.967-5.25h0Zm35.189,12.02V1035.6h-7.47l0.18,20.79h-0.13l-12.78-20.79h-8.78v31.86h7.47l-0.18-20.84h0.14l12.82,20.84h8.73Zm14.31,0V1035.6h-7.74v31.86h7.74Zm29.21-25.29v-6.57h-25.7v6.57h9v25.29h7.7v-25.29h9Zm31.22-6.57h-9l-6.79,11.79-6.8-11.79h-9.31l11.97,18.36v13.5h7.69v-13.5Z" transform="translate(-814.031 -1034.75)"/></svg>
