<svg xmlns="http://www.w3.org/2000/svg" width="51.281" height="11.9" viewBox="0 0 51.281 11.9"><path fill="#292929" fill-rule="evenodd" d="M43.3,1387.62a4.316,4.316,0,0,0-1.544-.91,5.451,5.451,0,0,0-1.752-.3,5.53,5.53,0,0,0-1.512.2,4.157,4.157,0,0,0-1.328.6,3.249,3.249,0,0,0-.944,1.04,2.9,2.9,0,0,0-.36,1.48,3.1,3.1,0,0,0,.256,1.34,2.754,2.754,0,0,0,.664.9,3.326,3.326,0,0,0,.92.6c0.341,0.14.682,0.27,1.024,0.38s0.688,0.23,1.008.34a3.887,3.887,0,0,1,.832.37,2.048,2.048,0,0,1,.56.51,1.287,1.287,0,0,1,.208.75,1.463,1.463,0,0,1-.184.77,1.653,1.653,0,0,1-.48.52,1.929,1.929,0,0,1-.664.3,2.923,2.923,0,0,1-2.088-.25,2.886,2.886,0,0,1-1.112-.91l-1.44,1.34a4.1,4.1,0,0,0,1.728,1.21,5.991,5.991,0,0,0,2.16.41,5.867,5.867,0,0,0,1.584-.22,3.827,3.827,0,0,0,1.312-.68,3.3,3.3,0,0,0,.9-1.12,3.6,3.6,0,0,0,.336-1.6,2.824,2.824,0,0,0-.312-1.39,3.033,3.033,0,0,0-.8-0.93,4.576,4.576,0,0,0-1.072-.59c-0.39-.15-0.766-0.28-1.128-0.4-0.32-.09-0.614-0.19-0.88-0.29a2.686,2.686,0,0,1-.68-0.33,1.506,1.506,0,0,1-.44-0.47,1.26,1.26,0,0,1-.16-0.65,1.29,1.29,0,0,1,.184-0.71,1.45,1.45,0,0,1,.472-0.48,2.016,2.016,0,0,1,.64-0.28,2.816,2.816,0,0,1,.7-0.08,2.652,2.652,0,0,1,1.176.28,2.345,2.345,0,0,1,.9.69Zm2.07,10.4H47.39V1393h5.3v5.02H54.7v-11.33H52.686v4.58h-5.3v-4.58H45.374v11.33Zm10.565,0H58.2l1.024-2.59h4.912l1.056,2.59h2.3l-4.88-11.33H60.867Zm3.968-4.32,1.776-4.61,1.744,4.61h-3.52Zm8.829,4.32h2.016v-4.8h1.472l2.624,4.8H77.28L74.256,1393a3.482,3.482,0,0,0,1.9-1.05,2.905,2.905,0,0,0,.7-2.01,3.056,3.056,0,0,0-.352-1.52,2.977,2.977,0,0,0-.936-1.01,4.075,4.075,0,0,0-1.336-.55,7.224,7.224,0,0,0-1.552-.17H68.736v11.33Zm2.016-6.45v-3.18h1.824a5.443,5.443,0,0,1,.792.06,2.612,2.612,0,0,1,.728.24,1.574,1.574,0,0,1,.528.48,1.276,1.276,0,0,1,.208.76,1.466,1.466,0,0,1-.224.84,1.61,1.61,0,0,1-.568.5,2.362,2.362,0,0,1-.776.24,6.273,6.273,0,0,1-.864.06H70.752Zm8.1,6.45h7.792v-1.79H80.867v-3.2h5.2v-1.7h-5.2v-2.88h5.488v-1.76h-7.5v11.33Z" transform="translate(-35.375 -1386.41)"/></svg>
