<svg xmlns="http://www.w3.org/2000/svg" width="165.535" height="107.75" viewBox="0 0 165.535 107.75"><path fill-rule="evenodd" d="M909.382,795.968h11.092V782.15h9.306v-9.682h-9.306V729.416H906.938l-28.294,42.77v9.964h30.738v13.818Zm0-23.5H890.3l18.894-29.8h0.188v29.8Zm72.567-24.346a34.561,34.561,0,0,0-4.512-11,20.978,20.978,0,0,0-7.332-6.956,20.166,20.166,0,0,0-10.011-2.444,20.431,20.431,0,0,0-10.058,2.444,21.222,21.222,0,0,0-7.426,6.956,33.85,33.85,0,0,0-4.559,11,69.21,69.21,0,0,0,0,29.14,33.85,33.85,0,0,0,4.559,11,21.212,21.212,0,0,0,7.426,6.956,20.431,20.431,0,0,0,10.058,2.444,20.166,20.166,0,0,0,10.011-2.444,20.969,20.969,0,0,0,7.332-6.956,34.561,34.561,0,0,0,4.512-11A69.21,69.21,0,0,0,981.949,748.122Zm-10.434,22.466a37.931,37.931,0,0,1-1.692,8.272,18.6,18.6,0,0,1-3.619,6.533,7.748,7.748,0,0,1-6.11,2.679,7.846,7.846,0,0,1-6.2-2.679,18.566,18.566,0,0,1-3.619-6.533,39.842,39.842,0,0,1-1.739-8.272,66.561,66.561,0,0,1,0-15.792,41.662,41.662,0,0,1,1.739-8.366,18.471,18.471,0,0,1,3.619-6.627,7.846,7.846,0,0,1,6.2-2.679,7.748,7.748,0,0,1,6.11,2.679,18.5,18.5,0,0,1,3.619,6.627,39.6,39.6,0,0,1,1.692,8.366q0.423,4.419.423,7.9T971.515,770.588Zm48.475,25.38h11.09V782.15h9.31v-9.682h-9.31V729.416h-13.53l-28.3,42.77v9.964h30.739v13.818Zm0-23.5h-19.08l18.89-29.8h0.19v29.8Zm-139,42.676H877.38v19.824h2.772V818.784h0.056l10.472,16.184h3.5V815.144h-2.772v15.848h-0.056Zm37.13,5.642a9.7,9.7,0,0,0-2.2-3.276,9.912,9.912,0,0,0-3.332-2.114,12.006,12.006,0,0,0-8.386,0,9.94,9.94,0,0,0-3.318,2.114,9.539,9.539,0,0,0-2.184,3.276,11.792,11.792,0,0,0,0,8.456,9.712,9.712,0,0,0,5.5,5.46,11.8,11.8,0,0,0,8.386,0,9.859,9.859,0,0,0,3.332-2.156,9.992,9.992,0,0,0,2.2-3.3A11.6,11.6,0,0,0,918.122,820.786Zm-2.73,7.35a7.6,7.6,0,0,1-1.512,2.534,6.946,6.946,0,0,1-2.38,1.694,7.627,7.627,0,0,1-3.108.616,7.434,7.434,0,0,1-3.08-.616,7.01,7.01,0,0,1-2.352-1.694,7.6,7.6,0,0,1-1.512-2.534,8.972,8.972,0,0,1-.532-3.108,8.785,8.785,0,0,1,.532-3.066,7.93,7.93,0,0,1,1.5-2.534,6.92,6.92,0,0,1,2.352-1.722,7.981,7.981,0,0,1,6.216,0,7.064,7.064,0,0,1,2.366,1.722,7.8,7.8,0,0,1,1.512,2.534,8.785,8.785,0,0,1,.532,3.066A8.972,8.972,0,0,1,915.392,828.136Zm13.362-10.556h6.356v-2.436H919.626v2.436h6.356v17.388h2.772V817.58Zm18.759,8.54H956.5v-2.38h-8.988v-6.16h9.6v-2.436H944.741v19.824h2.772V826.12Zm32-5.334a9.7,9.7,0,0,0-2.2-3.276,9.922,9.922,0,0,0-3.332-2.114,12.006,12.006,0,0,0-8.386,0,9.94,9.94,0,0,0-3.318,2.114,9.51,9.51,0,0,0-2.184,3.276,11.792,11.792,0,0,0,0,8.456,9.712,9.712,0,0,0,5.5,5.46,11.8,11.8,0,0,0,8.386,0,9.869,9.869,0,0,0,3.332-2.156,9.992,9.992,0,0,0,2.2-3.3A11.6,11.6,0,0,0,979.509,820.786Zm-2.73,7.35a7.6,7.6,0,0,1-1.512,2.534,6.956,6.956,0,0,1-2.38,1.694,7.634,7.634,0,0,1-3.108.616,7.431,7.431,0,0,1-3.08-.616,7.01,7.01,0,0,1-2.352-1.694,7.565,7.565,0,0,1-1.512-2.534,8.972,8.972,0,0,1-.532-3.108,8.785,8.785,0,0,1,.532-3.066,7.912,7.912,0,0,1,1.5-2.534,6.92,6.92,0,0,1,2.352-1.722,7.981,7.981,0,0,1,6.216,0,7.074,7.074,0,0,1,2.366,1.722,7.8,7.8,0,0,1,1.512,2.534,8.808,8.808,0,0,1,.532,3.066A9,9,0,0,1,976.779,828.136Zm18.172,6.678a6.921,6.921,0,0,0,2.408-1.75,7.157,7.157,0,0,0,1.414-2.506,9.358,9.358,0,0,0,.462-2.926V815.144h-2.772v12.32a8.113,8.113,0,0,1-.252,2,5.1,5.1,0,0,1-.826,1.778,4.154,4.154,0,0,1-1.526,1.26,5.945,5.945,0,0,1-4.662,0,4.163,4.163,0,0,1-1.512-1.26,5.083,5.083,0,0,1-.826-1.778,8.113,8.113,0,0,1-.252-2v-12.32h-2.772v12.488a9.358,9.358,0,0,0,.462,2.926,7.141,7.141,0,0,0,1.414,2.506,6.9,6.9,0,0,0,2.408,1.75A9.2,9.2,0,0,0,994.951,834.814Zm12.529-19.67h-3.61v19.824h2.77V818.784h0.05l10.48,16.184h3.5V815.144h-2.78v15.848h-0.05Zm17.93,19.824h6.81a12.563,12.563,0,0,0,3.81-.6,10.706,10.706,0,0,0,3.44-1.82,9.1,9.1,0,0,0,2.49-3.08,9.5,9.5,0,0,0,.95-4.41,9.8,9.8,0,0,0-.95-4.508,8.939,8.939,0,0,0-2.49-3.08,10.251,10.251,0,0,0-3.44-1.764,13.463,13.463,0,0,0-3.81-.56h-6.81v19.824Zm2.78-17.416h3.47a10.866,10.866,0,0,1,3.32.49,7.71,7.71,0,0,1,2.63,1.428,6.355,6.355,0,0,1,1.72,2.338,8.015,8.015,0,0,1,.62,3.248,7.79,7.79,0,0,1-.62,3.164,6.464,6.464,0,0,1-1.72,2.352,7.747,7.747,0,0,1-2.63,1.456,10.568,10.568,0,0,1-3.32.5h-3.47v-14.98Z" transform="translate(-877.375 -727.719)"/></svg>
